<svg width="26" height="25" viewBox="0 0 26 25" fill="none" xmlns="http://www.w3.org/2000/svg">
<g clip-path="url(#clip0_6391_4026)">
<rect x="0.499939" width="25" height="25" rx="12.5" fill="#F4F4F4"/>
<path d="M12.9999 21C8.29994 21 4.49994 17.2 4.49994 12.5C4.49994 7.8 8.29994 4 12.9999 4C17.6999 4 21.4999 7.8 21.4999 12.5C21.4999 17.2 17.6999 21 12.9999 21ZM12.9999 5C8.84994 5 5.49994 8.35 5.49994 12.5C5.49994 16.65 8.84994 20 12.9999 20C17.1499 20 20.4999 16.65 20.4999 12.5C20.4999 8.35 17.1499 5 12.9999 5Z" fill="black"/>
<path d="M8.49994 12H17.4999V13H8.49994V12Z" fill="black"/>
<path d="M12.4999 8H13.4999V17H12.4999V8Z" fill="black"/>
</g>
<defs>
<clipPath id="clip0_6391_4026">
<rect x="0.499939" width="25" height="25" rx="12.5" fill="white"/>
</clipPath>
</defs>
</svg>
