<svg width="39" height="39" viewBox="0 0 39 39" fill="none" xmlns="http://www.w3.org/2000/svg">
<path d="M21.5963 11.0109L21.762 11.1378L21.9687 11.1093L24.5435 10.7541L25.5218 13.2L25.6014 13.399L25.8004 13.4786L28.2463 14.4569L27.8911 17.0317L27.8626 17.2384L27.9895 17.4041L29.5952 19.5004L27.9895 21.5967L27.8626 21.7624L27.8911 21.9691L28.2463 24.5439L25.8004 25.5222L25.6014 25.6018L25.5218 25.8008L24.5435 28.2467L21.9687 27.8915L21.762 27.863L21.5963 27.9899L19.5 29.5956L17.4037 27.9899L17.238 27.863L17.0313 27.8915L14.4565 28.2467L13.4782 25.8008L13.3986 25.6018L13.1996 25.5222L10.7537 24.5439L11.1089 21.9691L11.1374 21.7624L11.0105 21.5967L9.40481 19.5004L11.0105 17.4041L11.1374 17.2384L11.1089 17.0317L10.7537 14.4569L13.1996 13.4786L13.3986 13.399L13.4782 13.2L14.4565 10.7541L17.0313 11.1093L17.238 11.1378L17.4037 11.0109L19.5 9.40521L21.5963 11.0109Z" stroke="black"/>
<path d="M24.1391 15.5996L18.2577 21.1246L15.8359 18.8496L14.625 19.9871L18.2577 23.3996L25.35 16.7371L24.1391 15.5996Z" fill="black"/>
</svg>
