<svg width="18" height="18" viewBox="0 0 18 18" fill="none" xmlns="http://www.w3.org/2000/svg">
<path d="M8.92754 16.1625C10.1223 16.1625 10.8048 15.6015 10.9665 14.8748H6.88904C7.05079 15.6015 7.73279 16.1625 8.92754 16.1625Z" fill="#D0CFCE"/>
<path d="M11.3008 2.66369C11.3008 2.66369 8.24326 1.79944 6.75076 2.98094C5.25826 4.16244 5.15051 6.88094 5.15051 6.88094C5.29676 7.43419 6.20701 9.00419 6.20701 9.00419C6.34201 9.23194 6.77026 10.8744 7.01926 11.8442H10.9993C11.2158 11.1329 12.0868 8.55669 12.2005 8.29169C12.3465 7.95094 12.5955 7.28769 12.7213 7.03744C13.0238 6.43519 13.0128 5.90419 12.8558 5.28069C12.5163 3.93444 12.2373 3.59994 11.3005 2.66319L11.3008 2.66369Z" fill="#FCEA2B"/>
<path d="M8.92753 1.80055C6.79453 1.80055 4.80253 3.48855 4.80253 5.62055C4.80253 5.8903 4.73653 6.7433 5.10678 6.7433C5.10678 6.7433 5.70503 4.78705 7.19728 3.6058C8.68953 2.42455 11.0773 2.67455 11.0773 2.67455C10.9113 2.1633 9.68978 1.7998 8.92828 1.7998L8.92753 1.80055Z" fill="white"/>
<path d="M9.00005 11.805V8.82005M10.4925 8.82005H7.50755M13.1375 5.93755C13.1375 6.9338 12.6913 7.41455 12.199 8.56255C12.0733 8.85555 11.1463 11.9075 11.1463 11.9075H6.8538C6.8538 11.9075 6.10855 8.99005 5.9673 8.75255C5.3748 7.75305 4.86255 7.02505 4.86255 5.93755C4.86255 3.6523 6.71505 1.80005 9.00005 1.80005C11.285 1.80005 13.1375 3.65255 13.1375 5.93755Z" stroke="black" stroke-width="0.5" stroke-linecap="round" stroke-linejoin="round"/>
<path d="M11.04 14.6975C11.04 15.5075 10.1273 16.1643 9.00127 16.1643C7.87527 16.1643 6.96252 15.5075 6.96252 14.6975H11.04Z" stroke="black" stroke-width="0.424" stroke-linecap="round" stroke-linejoin="round"/>
<path d="M6.99756 13.7451L11.0026 12.8776" stroke="black" stroke-width="0.49125" stroke-linecap="round" stroke-linejoin="round"/>
<path d="M9.55 14.0176L10.995 13.7226M7.005 12.9001L8.45 12.6051" stroke="black" stroke-width="0.5" stroke-linecap="round" stroke-linejoin="round"/>
</svg>
