<svg width="26" height="25" viewBox="0 0 26 25" fill="none" xmlns="http://www.w3.org/2000/svg">
<rect x="0.399902" width="25" height="25" rx="12.5" fill="#F4F4F4"/>
<path d="M13.3999 16.066L10.3665 13.0334L10.9733 12.4163L12.9713 14.4143V7H13.8285V14.4143L15.8256 12.4171L16.4333 13.0334L13.3999 16.066ZM8.78505 19C8.39019 19 8.06076 18.868 7.79676 18.604C7.53276 18.34 7.40047 18.0103 7.3999 17.6149V15.538H8.25705V17.6149C8.25705 17.7469 8.3119 17.868 8.42162 17.9783C8.53133 18.0886 8.65219 18.1434 8.78419 18.1429H18.0156C18.147 18.1429 18.2679 18.088 18.3782 17.9783C18.4885 17.8686 18.5433 17.7474 18.5428 17.6149V15.538H19.3999V17.6149C19.3999 18.0097 19.2679 18.3391 19.0039 18.6031C18.7399 18.8671 18.4102 18.9994 18.0148 19H8.78505Z" fill="black"/>
</svg>
