<svg width="26" height="25" viewBox="0 0 26 25" fill="none" xmlns="http://www.w3.org/2000/svg">
<rect x="0.399902" width="25" height="25" rx="12.5" fill="#F4F4F4"/>
<path d="M13.3999 8.89502C17.8469 8.89502 19.8999 13 19.8999 13C19.8999 13 17.8469 17.105 13.3999 17.105C8.9529 17.105 6.8999 13 6.8999 13C6.8999 13 8.9529 8.89502 13.3999 8.89502Z" stroke="black" stroke-width="0.929" stroke-linejoin="round"/>
<path d="M15.3398 13C15.3458 13.2663 15.2985 13.5312 15.2007 13.779C15.1029 14.0268 14.9565 14.2526 14.7703 14.443C14.584 14.6335 14.3616 14.7848 14.116 14.8882C13.8705 14.9915 13.6067 15.0447 13.3403 15.0447C13.0739 15.0447 12.8102 14.9915 12.5646 14.8882C12.3191 14.7848 12.0967 14.6335 11.9104 14.443C11.7241 14.2526 11.5778 14.0268 11.48 13.779C11.3822 13.5312 11.3349 13.2663 11.3408 13C11.3408 12.4696 11.5515 11.9609 11.9266 11.5858C12.3017 11.2107 12.8104 11 13.3408 11C13.8713 11 14.38 11.2107 14.755 11.5858C15.1301 11.9609 15.3408 12.4696 15.3408 13H15.3398Z" stroke="black" stroke-width="0.929" stroke-linejoin="round"/>
</svg>
