<svg width="19" height="20" viewBox="0 0 19 20" fill="none" xmlns="http://www.w3.org/2000/svg">
<path fill-rule="evenodd" clip-rule="evenodd" d="M7.31702 0.801758H12.183V1.63326C12.2565 2.43576 12.3685 3.03876 12.527 3.47576C12.686 3.91426 12.874 4.13876 13.0685 4.25326C13.262 4.36726 13.5445 4.42126 13.997 4.34326C14.4495 4.26576 15.0235 4.06426 15.752 3.72576L16.5 3.29376L18.933 7.50826L18.3295 7.85626C17.6375 8.33776 17.147 8.75026 16.831 9.11776C16.514 9.48676 16.4085 9.76976 16.406 10.0008C16.404 10.2298 16.5025 10.5093 16.812 10.8738C17.1205 11.2383 17.606 11.6473 18.297 12.1253L18.933 12.4928L18.6735 12.9423L16.5 16.7073L15.72 16.2568C14.9775 15.9183 14.4 15.7243 13.951 15.6588C13.505 15.5938 13.2335 15.6618 13.047 15.7908C12.852 15.9258 12.6635 16.1868 12.51 16.6838C12.3565 17.1798 12.255 17.8558 12.195 18.7453H12.183V19.1993H7.31702V18.1613C7.23752 17.3908 7.11852 16.8223 6.95552 16.4173C6.79352 16.0148 6.60552 15.8168 6.40852 15.7188C6.20502 15.6173 5.90452 15.5788 5.43052 15.6753C4.96002 15.7718 4.36902 15.9923 3.62552 16.3458L3.00002 16.7068L0.567017 12.4928L1.47802 11.9668C2.08552 11.5268 2.51202 11.1478 2.78352 10.8098C3.05502 10.4718 3.14452 10.2098 3.14252 9.99176C3.14052 9.77326 3.04702 9.50926 2.76702 9.16876C2.48702 8.82826 2.05102 8.44876 1.43002 8.00626L0.567017 7.50826L3.00002 3.29376L3.52402 3.59626C4.28452 3.95976 4.89202 4.19026 5.37802 4.29526C5.86802 4.40176 6.18252 4.36876 6.39502 4.27026C6.59752 4.17576 6.78802 3.98426 6.95202 3.58976C7.11702 3.19126 7.23802 2.62726 7.31702 1.85726V0.801758ZM3.37602 15.3583C4.07302 15.0358 4.68902 14.8068 5.22952 14.6958C5.82202 14.5743 6.37502 14.5848 6.85452 14.8238C7.34052 15.0658 7.66402 15.4998 7.88352 16.0438C8.10002 16.5818 8.23152 17.2673 8.31452 18.0853L8.31702 18.1103V18.1993H11.2355C11.3005 17.4913 11.4005 16.8863 11.5545 16.3888C11.7415 15.7838 12.0245 15.2823 12.478 14.9688C12.9405 14.6488 13.4945 14.5818 14.095 14.6693C14.682 14.7548 15.359 14.9933 16.1315 15.3453L17.5765 12.8423C16.93 12.3843 16.4135 11.9503 16.049 11.5203C15.651 11.0513 15.401 10.5463 15.4065 9.99076C15.4115 9.43676 15.6705 8.93426 16.0725 8.46576C16.436 8.04276 16.945 7.61476 17.5785 7.16226L16.1295 4.65226C15.388 4.99476 14.7355 5.23126 14.1665 5.32926C13.5765 5.43026 13.029 5.39076 12.5615 5.11526C12.0945 4.84026 11.7915 4.38026 11.587 3.81676C11.392 3.27826 11.271 2.60276 11.1945 1.80176H8.31702V1.90726L8.31452 1.93226C8.23202 2.75176 8.09802 3.43726 7.87552 3.97326C7.64902 4.51776 7.31452 4.94526 6.81652 5.17676C6.32852 5.40376 5.76702 5.40326 5.16652 5.27276C4.64302 5.15926 4.04952 4.93926 3.38152 4.63376L1.93302 7.14226L1.97102 7.16426L1.99002 7.17776C2.65002 7.64576 3.17502 8.09026 3.53902 8.53376C3.90602 8.97976 4.13802 9.45876 4.14252 9.98376C4.14702 10.5088 3.92252 10.9888 3.56302 11.4363C3.20652 11.8803 2.69002 12.3248 2.04302 12.7923L2.02202 12.8073L1.93302 12.8588L3.37602 15.3583Z" fill="#126EB4"/>
<path fill-rule="evenodd" clip-rule="evenodd" d="M9.75 11.5C10.1478 11.5 10.5294 11.342 10.8107 11.0607C11.092 10.7794 11.25 10.3978 11.25 10C11.25 9.60218 11.092 9.22064 10.8107 8.93934C10.5294 8.65804 10.1478 8.5 9.75 8.5C9.35218 8.5 8.97064 8.65804 8.68934 8.93934C8.40804 9.22064 8.25 9.60218 8.25 10C8.25 10.3978 8.40804 10.7794 8.68934 11.0607C8.97064 11.342 9.35218 11.5 9.75 11.5ZM9.75 12.5C10.413 12.5 11.0489 12.2366 11.5178 11.7678C11.9866 11.2989 12.25 10.663 12.25 10C12.25 9.33696 11.9866 8.70107 11.5178 8.23223C11.0489 7.76339 10.413 7.5 9.75 7.5C9.08696 7.5 8.45107 7.76339 7.98223 8.23223C7.51339 8.70107 7.25 9.33696 7.25 10C7.25 10.663 7.51339 11.2989 7.98223 11.7678C8.45107 12.2366 9.08696 12.5 9.75 12.5Z" fill="#126EB4"/>
<path fill-rule="evenodd" clip-rule="evenodd" d="M9.75 13.5C10.2096 13.5 10.6648 13.4095 11.0894 13.2336C11.514 13.0577 11.8999 12.7999 12.2249 12.4749C12.5499 12.1499 12.8077 11.764 12.9836 11.3394C13.1595 10.9148 13.25 10.4596 13.25 10C13.25 9.54037 13.1595 9.08525 12.9836 8.66061C12.8077 8.23597 12.5499 7.85013 12.2249 7.52513C11.8999 7.20012 11.514 6.94231 11.0894 6.76642C10.6648 6.59053 10.2096 6.5 9.75 6.5C8.82174 6.5 7.9315 6.86875 7.27513 7.52513C6.61875 8.1815 6.25 9.07174 6.25 10C6.25 10.9283 6.61875 11.8185 7.27513 12.4749C7.9315 13.1313 8.82174 13.5 9.75 13.5ZM9.75 14.5C10.9435 14.5 12.0881 14.0259 12.932 13.182C13.7759 12.3381 14.25 11.1935 14.25 10C14.25 8.80653 13.7759 7.66193 12.932 6.81802C12.0881 5.97411 10.9435 5.5 9.75 5.5C8.55653 5.5 7.41193 5.97411 6.56802 6.81802C5.72411 7.66193 5.25 8.80653 5.25 10C5.25 11.1935 5.72411 12.3381 6.56802 13.182C7.41193 14.0259 8.55653 14.5 9.75 14.5Z" fill="#126EB4"/>
</svg>
