<svg width="24" height="24" viewBox="0 0 24 24" fill="white" xmlns="http://www.w3.org/2000/svg">
<path d="M19.6775 19.2689C21.9627 18.3803 22.4293 14.0958 20.7197 9.69911C19.0101 5.30245 15.7717 2.45858 13.4865 3.34716C11.2013 4.23573 10.7347 8.52025 12.4443 12.9169C14.1539 17.3136 17.3923 20.1574 19.6775 19.2689Z" stroke="black" stroke-width="0.5" stroke-linecap="round" stroke-linejoin="round"/>
<path d="M18.513 19.4151L5.049 18.6916C4.30674 18.6914 3.59496 18.3964 3.0701 17.8715C2.54524 17.3467 2.25027 16.6349 2.25 15.8926C2.25 15.1206 2.636 14.3481 3.1185 13.8176L12.722 3.82812" stroke="black" stroke-width="0.5" stroke-linecap="round" stroke-linejoin="round"/>
<path d="M9.73001 18.9334C8.76501 18.8369 7.46201 17.3409 6.64151 15.2179C5.82151 13.1429 5.77301 11.2124 6.35151 10.4404M9.97101 19.0304C9.97101 20.0434 9.15101 20.8154 8.08901 20.8154C7.02701 20.8154 6.20701 20.0434 6.20701 19.0784V18.8369M19.526 10.4404L14.7485 14.5904C16.1485 17.0514 17.9335 18.4994 19.1885 18.0169C20.7325 17.3894 20.8775 14.0114 19.526 10.4404ZM18.706 8.55843L13.88 12.7564C13.8241 12.6307 13.7757 12.5018 13.735 12.3704C12.2875 8.65493 12.4325 5.18043 13.9765 4.55293C15.328 4.07043 17.258 5.80843 18.706 8.55843Z" stroke="black" stroke-width="0.5" stroke-linecap="round" stroke-linejoin="round"/>
</svg>
