<svg width="570" height="420" viewBox="0 0 570 420" fill="none" xmlns="http://www.w3.org/2000/svg">
<g clip-path="url(#clip0_3870_14945)">
<path d="M309.57 339.04C438.114 339.04 542.32 264.759 542.32 173.13C542.32 81.5002 438.114 7.21973 309.57 7.21973C181.026 7.21973 76.8199 81.5002 76.8199 173.13C76.8199 264.759 181.026 339.04 309.57 339.04Z" fill="#F5F5FF"/>
<path d="M106.25 416.069C164.93 416.069 212.5 408.749 212.5 399.719C212.5 390.689 164.93 383.369 106.25 383.369C47.5697 383.369 0 390.689 0 399.719C0 408.749 47.5697 416.069 106.25 416.069Z" fill="#DFDFEB"/>
<path d="M279.91 419.34C385.921 419.34 471.86 412.019 471.86 402.99C471.86 393.96 385.921 386.64 279.91 386.64C173.899 386.64 87.96 393.96 87.96 402.99C87.96 412.019 173.899 419.34 279.91 419.34Z" fill="#DFDFEB"/>
<path d="M227.7 0.00952095C207.88 0.549521 191.48 16.4295 190.34 36.2195C189.67 47.8595 194.18 58.4495 201.77 65.9295C202.89 67.0295 203.41 68.6095 203.15 70.1595L200.3 87.0295L217.84 76.8095C218.84 76.2295 220.02 76.0095 221.15 76.2395C225.44 77.0995 229.98 77.2595 234.66 76.5495C251.99 73.9195 265.51 59.5795 267.11 42.1195C269.24 18.8695 250.66 -0.610479 227.7 0.00952095Z" fill="#D3DDF7"/>
<path d="M227.02 51.8299L226.91 42.6199C228.25 42.2899 229.48 41.8699 230.59 41.3399C231.7 40.8099 232.67 40.2099 233.5 39.5199C234.33 38.8299 235.03 38.0599 235.6 37.2099C236.16 36.3599 236.59 35.4399 236.88 34.4599C237.17 33.4799 237.32 32.4399 237.32 31.3599C237.32 29.7999 236.94 28.3299 236.18 26.9499C235.42 25.5699 234.33 24.4499 232.91 23.5999C231.49 22.7499 229.81 22.3199 227.84 22.3199C225.73 22.3199 223.78 22.8999 221.98 24.0599C220.18 25.2199 218.81 27.1999 217.87 29.9999L216.89 29.3499C217.72 26.6999 219.12 24.6699 221.08 23.2499C223.04 21.8299 225.27 21.1299 227.78 21.1299C229.92 21.1299 231.8 21.5799 233.42 22.4899C235.04 23.3999 236.3 24.6199 237.21 26.1699C238.12 27.7099 238.57 29.4499 238.57 31.3699C238.57 32.8199 238.32 34.1799 237.83 35.4599C237.34 36.7299 236.65 37.8899 235.76 38.9499C234.87 39.9999 233.79 40.9199 232.52 41.6999C231.25 42.4799 229.81 43.0699 228.22 43.4699L228.11 51.8599H227.02V51.8299ZM226.36 58.6899C226.36 58.2199 226.49 57.8299 226.74 57.5199C226.99 57.2099 227.34 57.0599 227.78 57.0599C228.29 57.0599 228.65 57.2099 228.87 57.4999C229.09 57.7899 229.2 58.1899 229.2 58.6999C229.2 59.1399 229.08 59.5199 228.85 59.8399C228.61 60.1699 228.26 60.3299 227.79 60.3299C227.32 60.3299 226.96 60.1799 226.73 59.8899C226.5 59.5999 226.38 59.1999 226.38 58.6899H226.36Z" fill="black"/>
<path d="M116.28 376.71L117.99 389.58C117.99 389.58 150.01 403.22 147.04 403.42C144.07 403.62 98.05 400.65 98.05 400.65L100.76 377.28L116.28 376.71Z" fill="black"/>
<path d="M107.36 166.559C107.36 166.559 104.81 191.119 102.89 192.399C100.98 193.679 98.42 194.309 98.42 194.309L102.57 166.239L107.35 166.559H107.36Z" stroke="#424242" stroke-miterlimit="10"/>
<path d="M56.8 149.68C56.8 149.68 43.82 178.99 47.59 195.32L119.54 184.35L118.04 153.9L56.81 149.68H56.8Z" fill="black"/>
<path d="M119.53 184.34C119.53 184.34 119.94 254.65 120.44 279.15C120.94 303.65 125.22 379.3 125.22 379.3C125.22 379.3 111.78 386.71 97.79 380.72C96.67 380.24 84.62 183.68 84.62 183.68L119.53 184.34Z" fill="black"/>
<path d="M48.78 186.61L18.42 379.95C18.42 379.95 31.68 392.37 48.43 381.07L79.3 223.15L94.29 213.08L96.52 184.27L48.78 186.61Z" fill="black"/>
<path d="M40.81 375.16L43.57 386.27C43.57 386.27 63.77 410.57 60.79 410.57C57.81 410.57 24.64 395.53 24.64 395.53L28.89 372.39L40.8 375.17L40.81 375.16Z" fill="black"/>
<path d="M59.87 161.539C59.87 161.539 40.74 241.979 26.52 383.999" stroke="#424242" stroke-miterlimit="10"/>
<path d="M72.9901 170.189C72.9901 170.189 66.2901 186.939 54.8501 187.219" stroke="#424242" stroke-miterlimit="10"/>
<path d="M101.28 381.89L91.49 215.46L101.06 205.43" stroke="#424242" stroke-miterlimit="10"/>
<path d="M101.15 65.4795C106.13 64.4595 109.76 63.7295 109.76 63.7295L140.81 80.6895C140.86 80.7195 140.92 80.7495 140.97 80.7795C151.14 86.3895 155.64 95.9195 155.37 109.269L156.88 128.609L140.05 114.959L125.83 142.389L116.8 174.77C68.6 192.3 49.87 160.829 49.87 160.829L65.84 126.259L72.29 94.3295C75.35 77.9495 84.82 68.8495 101.15 65.5095V65.4795Z" fill="#B6C68A"/>
<path d="M361.8 120.1C361.8 120.1 356.94 140.45 329.41 165.28C329.41 165.28 326.78 161.56 332.66 147.24C338.54 132.92 360.65 115.02 361.8 120.1Z" fill="#919E6E"/>
<path d="M361.8 120.1C361.8 120.1 337.49 135.24 329.41 165.28C329.41 165.28 327.55 175.64 330.55 184.91" stroke="black" stroke-miterlimit="10" stroke-linecap="round"/>
<path d="M298.26 132.71C298.26 132.71 305.1 128.19 294.67 115.13C284.77 102.72 274.16 91.4897 252.35 86.2197C252.35 86.2197 257.09 116.51 271 124.55C284.91 132.59 298.25 132.7 298.25 132.7L298.26 132.71Z" fill="#919E6E"/>
<path d="M243.33 151.239C243.33 151.239 266.01 157.729 305.87 147.209C305.87 147.209 303.71 143.019 286.36 140.549C269.01 138.079 239 147.599 243.33 151.239Z" fill="#919E6E"/>
<path d="M243.33 151.239C243.33 151.239 271.87 138.399 305.87 147.209C305.87 147.209 309.35 148.319 312.65 153.369" stroke="black" stroke-miterlimit="10" stroke-linecap="round"/>
<path d="M261.06 173.31C261.06 173.31 284.64 191.09 324.49 180.57C324.49 180.57 317.78 166.36 300.43 163.88C283.08 161.4 256.73 169.66 261.05 173.3L261.06 173.31Z" fill="#919E6E"/>
<path d="M261.06 173.31C261.06 173.31 288.39 162.63 324.49 180.57C324.49 180.57 328.73 182.79 332.03 187.84" stroke="black" stroke-miterlimit="10" stroke-linecap="round"/>
<path d="M349.45 99.7393C349.45 99.7393 356.77 99.3393 337.99 114.599C320.25 129.009 322.38 129.269 322.38 129.269C322.38 129.269 330.22 106.499 349.45 99.7393Z" fill="black"/>
<path d="M309.7 136.34C309.7 136.34 314.99 138.78 325.36 130.43C335.72 122.07 340.66 102.29 349.46 99.75C349.46 99.75 327.42 105.34 309.7 136.35V136.34Z" fill="#919E6E"/>
<path d="M340.88 207.4C331.27 184.45 317.56 158.21 298.26 132.71C298.26 132.71 293.57 125.68 276.89 107.15C260.22 88.6297 252.35 86.2197 252.35 86.2197" stroke="black" stroke-miterlimit="10" stroke-linecap="round"/>
<path d="M346.84 100.649C346.84 100.649 325.72 108.299 309.7 136.339C305.82 143.129 309.57 148.949 312.65 153.379" stroke="black" stroke-miterlimit="10" stroke-linecap="round"/>
<path d="M560.68 364.929C560.68 364.929 540.2 371.079 506.01 348.929C506.01 348.929 508.25 342.979 523.72 342.019C539.18 341.059 564.79 360.149 560.68 364.929Z" fill="#919E6E"/>
<path d="M559.92 363.43C559.92 363.43 537.42 345.72 506.42 348.34C506.42 348.34 496.05 350.12 488.35 356.09" stroke="black" stroke-miterlimit="10" stroke-linecap="round"/>
<path d="M516.1 319.269C516.1 319.269 522.68 324.159 531.41 309.909C539.7 296.379 546.66 282.579 544.19 260.279C544.19 260.279 517.32 275.049 514.49 290.859C511.66 306.679 516.1 319.259 516.1 319.259V319.269Z" fill="#919E6E"/>
<path d="M568.93 344.719C568.93 344.719 573.23 350.659 550.23 343.119C528.51 335.999 529.44 337.919 529.44 337.919C529.44 337.919 552.83 332.199 568.92 344.719H568.93Z" fill="black"/>
<path d="M516.65 331.079C516.65 331.079 517.46 336.849 530.09 341.049C542.72 345.249 562.03 338.689 568.93 344.719C568.93 344.719 552.3 329.209 516.64 331.079H516.65Z" fill="#919E6E"/>
<path d="M460.36 384.759C478.67 367.909 498.68 346.089 516.09 319.269C516.09 319.269 521.11 312.469 532.85 290.479C544.59 268.499 544.18 260.279 544.18 260.279" stroke="black" stroke-miterlimit="10" stroke-linecap="round"/>
<path d="M566.76 343.009C566.76 343.009 548.9 329.379 516.65 331.079C508.84 331.489 505.3 335.299 499.44 342.599" stroke="black" stroke-miterlimit="10" stroke-linecap="round"/>
<path d="M347.66 161.049C353.93 161.049 360 158.849 364.81 154.829L378.16 143.689C382.97 139.679 388.67 137.529 394.52 137.529H460.8C466.81 137.529 471.69 142.409 471.69 148.419V388.359C471.69 398.739 463.28 407.149 452.9 407.149H122.51C114.44 407.149 107.89 400.609 107.89 392.529V175.659C107.89 167.589 114.43 161.039 122.51 161.039H347.66V161.049Z" fill="#234569"/>
<path d="M107.9 393.77C107.9 393.77 130.38 351.59 132.63 346.75L194.08 221.56C195.62 218.23 198.96 216.11 202.63 216.11H430.99C439.29 216.11 451.3 211.76 457.67 206.44L466.88 198.75C471.69 194.74 477.39 192.59 483.24 192.59H546.31C553.02 192.59 557.58 199.41 555.02 205.61L478.75 390.08C474.47 400.42 464.39 407.16 453.2 407.16H112.02C109.8 407.16 107.74 405.26 107.74 403.03L107.89 393.77H107.9Z" fill="#75B4F1"/>
<path d="M200.78 228.01L110.61 403.29" stroke="black" stroke-linejoin="round"/>
<path d="M237.94 258.21H315.61C317.73 258.21 319.7 257.14 320.84 255.38C323.46 251.32 320.5 246 315.61 246H237.94C235.82 246 233.85 247.07 232.71 248.83C230.09 252.89 233.05 258.21 237.94 258.21Z" stroke="black" stroke-linejoin="round"/>
<path d="M383.23 318.46L322.76 354.49" stroke="black" stroke-linecap="round" stroke-linejoin="round"/>
<path d="M333.79 316.72L371.79 354.71" stroke="black" stroke-linecap="round" stroke-linejoin="round"/>
<path d="M334.1 307.06C311.88 318.04 302.66 339.98 313.51 356.07C324.36 372.15 351.17 376.29 373.39 365.31C395.61 354.33 404.83 332.39 393.98 316.3C383.13 300.22 356.32 296.08 334.1 307.06Z" stroke="black" stroke-linecap="round" stroke-linejoin="round"/>
<path d="M123.33 147.22L134.55 159.81C134.55 159.81 124.03 172.22 113.34 164.87L111.63 162.41L123.34 147.21L123.33 147.22Z" fill="#B6C68A"/>
<path d="M97.27 72.0801C97.27 72.0801 112.64 76.1101 100.55 120.53" stroke="black" stroke-miterlimit="10" stroke-linecap="round"/>
<path d="M124.27 148.54C115.97 139.22 105.83 127.51 99.8401 119.43" stroke="black" stroke-miterlimit="10" stroke-linecap="round"/>
<path d="M113.33 164.88C105.37 156.72 94.61 145.1 89.91 140.79C82.59 134.08 75 123.28 77.47 109.41L77.17 98.29" stroke="black" stroke-miterlimit="10" stroke-linecap="round"/>
<path d="M161.13 158.92C151.32 153.62 146.81 147.06 143.03 142.2C134.01 130.6 130.81 129.17 133.46 115.67L133.6 101.54L153.17 122.72C160.64 132.63 177.87 150.4 184.24 157.41C184.24 157.41 176.77 167.37 161.14 158.92H161.13Z" fill="#B6C68A"/>
<path d="M121.22 155.34C122.12 155.09 123.06 155.02 123.99 155.12C127.35 155.48 136.34 156.42 137.35 156.43C138.6 156.45 139.62 154.58 142.3 161.34C144.98 168.1 144.5 168.73 144.49 169.62C144.48 170.51 142.53 183.49 140.44 181.54C138.35 179.59 138.63 178.45 138.63 178.45C138.63 178.45 137.5 183.73 136.91 183.52C136.32 183.31 134.12 183.31 134.47 179.59C134.47 179.59 133.27 183.21 132.04 182.31C130.81 181.41 131.08 177.5 131.08 177.5C131.08 177.5 129.76 180.44 128.25 178.48C126.74 176.52 127.87 171.98 127.87 171.98L126.6 168.6L123.86 167.42C123.86 167.42 114.65 169.83 113.06 163.43C111.84 158.52 118.21 156.17 121.22 155.34Z" fill="#DB8B7F"/>
<path d="M139.75 163.63L141.48 170.9L138.62 178.45" stroke="black" stroke-miterlimit="10" stroke-linecap="round"/>
<path d="M135.31 163.36L137.55 170.81L134.46 179.59" stroke="black" stroke-miterlimit="10" stroke-linecap="round"/>
<path d="M131.41 164.19L132.72 171.36L131.22 176.72" stroke="black" stroke-miterlimit="10" stroke-linecap="round"/>
<path d="M123.89 26.0693C120.62 29.1293 120.57 32.8493 120.57 32.8493C120.57 32.8493 119.45 31.4593 118.06 31.0193" stroke="black" stroke-miterlimit="10" stroke-linecap="round"/>
<path d="M170.59 153.259C173.7 152.509 176.98 153.019 179.82 154.479C183.56 156.399 189.42 159.37 190.18 159.6C191.31 159.94 192.05 159.33 192.2 166.21C192.26 168.93 192.25 170.81 192.01 171.61C191.77 172.41 186.27 180.62 184.47 179.47C184.42 179.44 184.39 179.41 184.34 179.38C183.88 179.99 183.27 180.749 182.67 181.259C182.22 181.649 179.71 181.59 180.99 178.3C180.99 178.3 179.25 182.11 177.9 181.6C176.14 180.94 176.42 179.239 177.07 177.809C176.25 178.919 175.24 179.82 174.52 178.86C173.11 176.98 176.31 170.3 176.31 170.3L176.68 166.249L174.23 164.059C174.23 164.059 165.49 164.27 165.7 158.05C165.8 155.2 168.11 153.87 170.59 153.27V153.259Z" fill="#DB8B7F"/>
<path d="M189.77 163.68L189.66 171.06L184.28 178.89" stroke="black" stroke-miterlimit="10" stroke-linecap="round"/>
<path d="M185.95 163.739L185.53 171.339L180.99 178.279" stroke="black" stroke-miterlimit="10" stroke-linecap="round"/>
<path d="M182.07 163.939L181.53 170.339L177.65 176.769" stroke="black" stroke-miterlimit="10" stroke-linecap="round"/>
<path d="M171.01 162.229C171.01 162.229 171.89 168.829 169.76 170.279C167.63 171.729 164.19 158.079 166.56 157.899C170.02 157.639 171.02 162.229 171.02 162.229H171.01Z" fill="#DB8B7F"/>
<path d="M173.91 161.27C173.91 161.27 171.79 161.61 171.19 164.1" stroke="black" stroke-miterlimit="10" stroke-linecap="round"/>
<path d="M132.79 129.329L143.09 115.909C152.51 103.449 146.23 90.2793 146.23 90.2793" stroke="black" stroke-miterlimit="10" stroke-linecap="round"/>
<path d="M156.88 128.59C156.88 128.59 150.81 120.18 149.43 123.9" stroke="black" stroke-miterlimit="10" stroke-linecap="round"/>
<path d="M159.23 58.58L157.48 58.21" stroke="white" stroke-miterlimit="10"/>
<path d="M122.71 56.9492L109.77 63.7192C109.77 63.7192 109.43 79.0792 123.96 90.7492L130.49 84.4092L137.07 90.9892C137.07 90.9892 139.57 89.0192 140.32 80.1092L139.15 69.2792L122.72 56.9492H122.71Z" fill="white"/>
<path d="M139.13 69.2892L122.71 56.9492L109.76 63.7292" stroke="black" stroke-linecap="round" stroke-linejoin="round"/>
<path d="M118.95 59.2794C118.95 59.2794 122.95 82.6694 128.88 84.3294C134.8 85.9894 138.5 74.2894 138.5 74.2894L127.03 42.3594L118.96 59.2794H118.95Z" fill="#DB8B7F"/>
<path d="M140.69 77.1095L140.76 80.0195C140.81 80.0495 140.64 80.9195 137.76 81.2495C125.09 80.8695 124.09 66.6095 123.05 55.2695C123.05 55.2695 141.86 74.8495 140.69 77.1095Z" fill="black"/>
<path d="M158.42 45.2999C158.42 45.2999 161.68 74.9499 144.28 79.7699C126.89 84.5899 122.72 56.2199 123.32 46.4099C123.92 36.5999 128.82 31.7599 141.01 31.3199C159.05 30.6699 158.42 45.2999 158.42 45.2999Z" fill="#DB8B7F"/>
<path d="M132.38 37.2696C132.38 37.2696 132.05 43.4996 127.92 44.7496L124.95 53.9096C124.95 53.9096 122.46 49.8396 119.72 48.3896C119.72 48.3896 116.7 36.2896 120.5 31.4796C124.31 26.6696 129.6 24.2296 142.4 25.2996C152.14 26.1096 157.85 33.0196 159.71 36.5396C160.31 37.6796 161.78 40.8796 158.35 43.9996C158.35 43.9996 158.4 41.6396 156.4 38.8796C156.4 38.8796 151.73 48.4196 132.38 37.2596" fill="black"/>
<path d="M115.71 55.4799C116.78 59.3899 119.86 61.9799 122.59 61.2599C125.32 60.5399 126.65 56.7799 125.58 52.8699C124.51 48.9599 121.43 46.3699 118.7 47.0899C115.98 47.8099 114.64 51.5699 115.71 55.4799Z" fill="#DB8B7F"/>
<path d="M140.79 56.7894C140.74 57.7994 141.22 58.6394 141.86 58.6694C142.5 58.6994 143.06 57.9094 143.11 56.8994C143.16 55.8894 142.68 55.0494 142.04 55.0194C141.4 54.9894 140.84 55.7794 140.79 56.7894Z" fill="black"/>
<path d="M154.2 57.6094C154.1 58.5494 154.49 59.3694 155.06 59.4294C155.64 59.4894 156.18 58.7794 156.28 57.8294C156.38 56.8894 155.99 56.0694 155.42 56.0094C154.84 55.9494 154.3 56.6594 154.2 57.6094Z" fill="black"/>
<path d="M136.96 48.7999C136.96 48.7999 141.57 49.7899 141.87 45.4199" stroke="black" stroke-miterlimit="10" stroke-linecap="round"/>
<path d="M152.57 48.4492C152.57 48.4492 153.74 52.5092 157.21 50.1592" stroke="black" stroke-miterlimit="10" stroke-linecap="round"/>
<path d="M139.98 73.0295C139.98 73.0295 138.46 66.8395 133.75 70.3895L139.98 73.0295Z" fill="black"/>
<path d="M118.44 52.0691C118.44 52.0691 121.5 49.4291 123.18 54.2491C123.18 54.2491 121.39 56.1491 122.52 57.6391C122.52 57.6391 120.76 58.0391 119.88 56.4791" stroke="black" stroke-linecap="round" stroke-linejoin="round"/>
<path d="M119.77 53.9199C119.77 53.9199 119.94 52.8499 121.13 51.6299" stroke="black" stroke-linecap="round" stroke-linejoin="round"/>
<path d="M151.54 57.4595C151.54 60.3195 153.3 62.6495 155.47 62.6495C157.64 62.6495 159.4 60.3295 159.4 57.4595C159.4 54.5895 157.64 52.2695 155.47 52.2695C153.3 52.2695 151.54 54.5895 151.54 57.4595Z" stroke="white" stroke-miterlimit="10"/>
<path d="M136.83 56.75C136.83 59.79 139.07 62.25 141.84 62.25C144.61 62.25 146.85 59.79 146.85 56.75C146.85 53.71 144.61 51.25 141.84 51.25C139.07 51.25 136.83 53.71 136.83 56.75Z" stroke="white" stroke-miterlimit="10"/>
<path d="M151.72 58.9593C151.72 58.9593 150.5 53.7893 146.55 58.5893" stroke="white" stroke-miterlimit="10"/>
<path d="M136.93 54.6698L125.3 52.0498" stroke="white" stroke-miterlimit="10"/>
<path d="M152.21 61.25C152.79 61.98 152.91 62.85 152.62 63.79C152.33 64.72 151.39 65.29 150.42 65.27C149.98 65.27 149.55 65.14 149.13 65.01C148.95 64.95 148.58 64.76 148.38 64.84C147.42 65.26 146.3 64.43 146.62 63.77" stroke="black" stroke-miterlimit="10" stroke-linecap="round"/>
</g>
<defs>
<clipPath id="clip0_3870_14945">
<rect width="569.25" height="419.33" fill="white"/>
</clipPath>
</defs>
</svg>
