<svg width="40" height="41" viewBox="0 0 40 41" fill="none" xmlns="http://www.w3.org/2000/svg">
<path d="M25.5 16.8335C25.5 15.3748 24.9205 13.9759 23.8891 12.9444C22.8576 11.913 21.4587 11.3335 20 11.3335C18.5413 11.3335 17.1424 11.913 16.1109 12.9444C15.0795 13.9759 14.5 15.3748 14.5 16.8335C14.5 23.2502 11.75 25.0835 11.75 25.0835H28.25C28.25 25.0835 25.5 23.2502 25.5 16.8335Z" stroke="black" stroke-linecap="round" stroke-linejoin="round"/>
<path d="M21.5859 28.75C21.4247 29.0278 21.1934 29.2584 20.9151 29.4187C20.6367 29.579 20.3212 29.6634 20 29.6634C19.6788 29.6634 19.3633 29.579 19.085 29.4187C18.8067 29.2584 18.5753 29.0278 18.4142 28.75" stroke="black" stroke-linecap="round" stroke-linejoin="round"/>
</svg>
