<svg width="50" height="51" viewBox="0 0 50 51" fill="none" xmlns="http://www.w3.org/2000/svg">
<g clip-path="url(#clip0_2880_11917)">
<path d="M15.9313 25.3663C15.6063 25.3663 15.2946 25.4931 15.0647 25.7187C14.8349 25.9444 14.7058 26.2504 14.7058 26.5695C14.7058 26.8886 14.8349 27.1947 15.0647 27.4203C15.2946 27.6459 15.6063 27.7727 15.9313 27.7727H16.7483C17.0733 27.7727 17.385 27.6459 17.6148 27.4203C17.8447 27.1947 17.9738 26.8886 17.9738 26.5695C17.9738 26.2504 17.8447 25.9444 17.6148 25.7187C17.385 25.4931 17.0733 25.3663 16.7483 25.3663H15.9313ZM14.7058 20.9545C14.7058 20.6354 14.8349 20.3294 15.0647 20.1037C15.2946 19.8781 15.6063 19.7513 15.9313 19.7513H16.7483C17.0733 19.7513 17.385 19.8781 17.6148 20.1037C17.8447 20.3294 17.9738 20.6354 17.9738 20.9545C17.9738 21.2736 17.8447 21.5797 17.6148 21.8053C17.385 22.031 17.0733 22.1577 16.7483 22.1577H15.9313C15.6063 22.1577 15.2946 22.031 15.0647 21.8053C14.8349 21.5797 14.7058 21.2736 14.7058 20.9545ZM15.9313 14.1364C15.6063 14.1364 15.2946 14.2631 15.0647 14.4888C14.8349 14.7144 14.7058 15.0205 14.7058 15.3396C14.7058 15.6587 14.8349 15.9647 15.0647 16.1904C15.2946 16.416 15.6063 16.5428 15.9313 16.5428H16.7483C17.0733 16.5428 17.385 16.416 17.6148 16.1904C17.8447 15.9647 17.9738 15.6587 17.9738 15.3396C17.9738 15.0205 17.8447 14.7144 17.6148 14.4888C17.385 14.2631 17.0733 14.1364 16.7483 14.1364H15.9313ZM20.4248 26.5695C20.4248 26.2504 20.5539 25.9444 20.7837 25.7187C21.0135 25.4931 21.3252 25.3663 21.6503 25.3663H22.4672C22.7923 25.3663 23.104 25.4931 23.3338 25.7187C23.5636 25.9444 23.6927 26.2504 23.6927 26.5695C23.6927 26.8886 23.5636 27.1947 23.3338 27.4203C23.104 27.6459 22.7923 27.7727 22.4672 27.7727H21.6503C21.3252 27.7727 21.0135 27.6459 20.7837 27.4203C20.5539 27.1947 20.4248 26.8886 20.4248 26.5695ZM21.6503 19.7513C21.3252 19.7513 21.0135 19.8781 20.7837 20.1037C20.5539 20.3294 20.4248 20.6354 20.4248 20.9545C20.4248 21.2736 20.5539 21.5797 20.7837 21.8053C21.0135 22.031 21.3252 22.1577 21.6503 22.1577H22.4672C22.7923 22.1577 23.104 22.031 23.3338 21.8053C23.5636 21.5797 23.6927 21.2736 23.6927 20.9545C23.6927 20.6354 23.5636 20.3294 23.3338 20.1037C23.104 19.8781 22.7923 19.7513 22.4672 19.7513H21.6503ZM20.4248 15.3396C20.4248 15.0205 20.5539 14.7144 20.7837 14.4888C21.0135 14.2631 21.3252 14.1364 21.6503 14.1364H22.4672C22.7923 14.1364 23.104 14.2631 23.3338 14.4888C23.5636 14.7144 23.6927 15.0205 23.6927 15.3396C23.6927 15.6587 23.5636 15.9647 23.3338 16.1904C23.104 16.416 22.7923 16.5428 22.4672 16.5428H21.6503C21.3252 16.5428 21.0135 16.416 20.7837 16.1904C20.5539 15.9647 20.4248 15.6587 20.4248 15.3396ZM27.3692 25.3663C27.0442 25.3663 26.7325 25.4931 26.5027 25.7187C26.2728 25.9444 26.1437 26.2504 26.1437 26.5695C26.1437 26.8886 26.2728 27.1947 26.5027 27.4203C26.7325 27.6459 27.0442 27.7727 27.3692 27.7727H28.1862C28.5112 27.7727 28.8229 27.6459 29.0528 27.4203C29.2826 27.1947 29.4117 26.8886 29.4117 26.5695C29.4117 26.2504 29.2826 25.9444 29.0528 25.7187C28.8229 25.4931 28.5112 25.3663 28.1862 25.3663H27.3692ZM26.1437 20.9545C26.1437 20.6354 26.2728 20.3294 26.5027 20.1037C26.7325 19.8781 27.0442 19.7513 27.3692 19.7513H28.1862C28.5112 19.7513 28.8229 19.8781 29.0528 20.1037C29.2826 20.3294 29.4117 20.6354 29.4117 20.9545C29.4117 21.2736 29.2826 21.5797 29.0528 21.8053C28.8229 22.031 28.5112 22.1577 28.1862 22.1577H27.3692C27.0442 22.1577 26.7325 22.031 26.5027 21.8053C26.2728 21.5797 26.1437 21.2736 26.1437 20.9545ZM27.3692 14.1364C27.0442 14.1364 26.7325 14.2631 26.5027 14.4888C26.2728 14.7144 26.1437 15.0205 26.1437 15.3396C26.1437 15.6587 26.2728 15.9647 26.5027 16.1904C26.7325 16.416 27.0442 16.5428 27.3692 16.5428H28.1862C28.5112 16.5428 28.8229 16.416 29.0528 16.1904C29.2826 15.9647 29.4117 15.6587 29.4117 15.3396C29.4117 15.0205 29.2826 14.7144 29.0528 14.4888C28.8229 14.2631 28.5112 14.1364 28.1862 14.1364H27.3692Z" fill="black"/>
<path d="M8.82349 38.2345V11.2504C8.82349 10.4085 9.16435 9.60098 9.77108 9.00563C10.3778 8.41027 11.2007 8.07581 12.0588 8.07581H31.4705C32.3286 8.07581 33.1515 8.41027 33.7582 9.00563C34.365 9.60098 34.7058 10.4085 34.7058 11.2504V38.2345C34.7058 38.5097 34.6719 38.7742 34.6039 39.0282H37.9411C38.1556 39.0282 38.3614 38.9446 38.5131 38.7957C38.6647 38.6469 38.75 38.445 38.75 38.2345V25.5361C38.75 25.4129 38.7207 25.2914 38.6646 25.1812C38.6084 25.071 38.5269 24.9751 38.4264 24.9012L37.6176 24.306C37.3602 24.1165 37.19 23.8345 37.1445 23.5219C37.099 23.2094 37.1819 22.8919 37.375 22.6393C37.568 22.3867 37.8554 22.2197 38.174 22.1751C38.4925 22.1304 38.8161 22.2118 39.0735 22.4012L39.8823 22.9964C40.6976 23.5964 41.1764 24.5361 41.1764 25.5361V38.2345C41.1764 39.0765 40.8356 39.884 40.2288 40.4793C39.6221 41.0747 38.7992 41.4091 37.9411 41.4091H32.1791C32.0889 41.407 31.9991 41.3974 31.9105 41.3806C31.766 41.3996 31.6194 41.4091 31.4705 41.4091H25.4044C25.0826 41.4091 24.774 41.2837 24.5465 41.0605C24.319 40.8372 24.1911 40.5344 24.1911 40.2187V36.6472H19.3382V40.2187C19.3382 40.5344 19.2104 40.8372 18.9828 41.0605C18.7553 41.2837 18.4467 41.4091 18.125 41.4091H12.0588C11.2007 41.4091 10.3778 41.0747 9.77108 40.4793C9.16435 39.884 8.82349 39.0765 8.82349 38.2345ZM12.0588 39.0282H16.9117V35.4568C16.9117 35.141 17.0395 34.8382 17.2671 34.615C17.4946 34.3917 17.8032 34.2663 18.125 34.2663H25.4044C25.7261 34.2663 26.0347 34.3917 26.2623 34.615C26.4898 34.8382 26.6176 35.141 26.6176 35.4568V39.0282H31.4705C31.6851 39.0282 31.8908 38.9446 32.0425 38.7957C32.1942 38.6469 32.2794 38.445 32.2794 38.2345V11.2504C32.2794 11.0399 32.1942 10.8381 32.0425 10.6892C31.8908 10.5404 31.6851 10.4568 31.4705 10.4568H12.0588C11.8443 10.4568 11.6385 10.5404 11.4869 10.6892C11.3352 10.8381 11.25 11.0399 11.25 11.2504V38.2345C11.25 38.445 11.3352 38.6469 11.4869 38.7957C11.6385 38.9446 11.8443 39.0282 12.0588 39.0282Z" fill="black"/>
<rect x="23" y="3.56128" width="22" height="9.18367" fill="white"/>
<path d="M49.8816 13.4375L46.5625 7.52679L49.8477 1.85714C49.9257 1.72204 49.9683 1.5675 49.9711 1.40935C49.9739 1.25121 49.9367 1.09512 49.8635 0.957065C49.7903 0.819009 49.6836 0.703941 49.5544 0.623633C49.4252 0.543324 49.278 0.500658 49.128 0.5H22.6934C22.2443 0.5 21.8136 0.688138 21.496 1.02302C21.1784 1.35791 21 1.81211 21 2.28571V13C21 13.4736 21.1784 13.9278 21.496 14.2627C21.8136 14.5976 22.2443 14.7857 22.6934 14.7857H49.1534C49.3029 14.7857 49.4497 14.7439 49.5789 14.6647C49.7081 14.5855 49.8151 14.4717 49.889 14.3347C49.963 14.1978 50.0013 14.0426 50 13.8851C49.9987 13.7275 49.9578 13.5731 49.8816 13.4375ZM29.899 10.4821H28.9507L26.1904 6.60714V10.4911H25.2336V4.96429H26.1904L28.9592 8.84821V4.96429H29.9075L29.899 10.4821ZM35.2588 5.85714H32.2698V7.1875H34.9793V8.08036H32.2698V9.51786H35.2588V10.4107H31.313V4.96429H35.2503L35.2588 5.85714ZM42.2781 10.4643H41.3213L40.0089 6.36607L38.6964 10.4821H37.7481L36.0547 4.96429H37.0877L38.2053 8.91964L39.4924 4.96429H40.5254L41.7616 8.91964L42.8877 4.96429H43.9292L42.2781 10.4643Z" fill="#126EB4"/>
</g>
<defs>
<clipPath id="clip0_2880_11917">
<rect width="50" height="50" fill="white" transform="translate(0 0.5)"/>
</clipPath>
</defs>
</svg>
