<svg width="100" height="100" viewBox="0 0 100 100" fill="none" xmlns="http://www.w3.org/2000/svg">
<rect width="100" height="100" rx="10" fill="#F4F4F4"/>
<path fill-rule="evenodd" clip-rule="evenodd" d="M31.1042 48.3333C31.2542 38 39.7417 29.6875 50.1646 29.6875C53.4277 29.6824 56.6377 30.5142 59.4877 32.1034C62.3378 33.6925 64.7327 35.986 66.4437 38.7646C66.6484 39.1169 66.7073 39.5353 66.6078 39.9305C66.5084 40.3256 66.2586 40.6663 65.9116 40.8799C65.5646 41.0935 65.1478 41.1631 64.7503 41.0738C64.3527 40.9845 64.0057 40.7435 63.7833 40.4021C62.3519 38.0779 60.3482 36.1597 57.9639 34.831C55.5795 33.5022 52.8942 32.8072 50.1646 32.8125C41.4458 32.8125 34.3833 39.7458 34.2312 48.3292L35.0646 47.5021C35.3588 47.2101 35.757 47.0469 36.1715 47.0485C36.586 47.05 36.983 47.2162 37.275 47.5104C37.567 47.8046 37.7302 48.2028 37.7286 48.6173C37.727 49.0319 37.5609 49.4288 37.2667 49.7208L33.7667 53.1917C33.474 53.4817 33.0787 53.6445 32.6667 53.6445C32.2546 53.6445 31.8593 53.4817 31.5667 53.1917L28.0667 49.7208C27.9208 49.5764 27.8049 49.4046 27.7255 49.2154C27.646 49.0261 27.6046 48.823 27.6037 48.6178C27.6027 48.4125 27.6422 48.2091 27.7198 48.0191C27.7975 47.8291 27.9118 47.6562 28.0562 47.5104C28.2007 47.3646 28.3725 47.2486 28.5617 47.1692C28.751 47.0898 28.954 47.0484 29.1593 47.0474C29.3645 47.0464 29.568 47.0859 29.758 47.1636C29.948 47.2412 30.1208 47.3555 30.2667 47.5L31.1042 48.3333ZM66.2208 46.8062C66.5133 46.5168 66.9083 46.3545 67.3198 46.3545C67.7313 46.3545 68.1262 46.5168 68.4187 46.8062L71.9312 50.2771C72.0811 50.4204 72.2009 50.592 72.2838 50.7821C72.3666 50.9722 72.4108 51.1768 72.4137 51.3841C72.4167 51.5914 72.3784 51.7972 72.301 51.9896C72.2236 52.1819 72.1087 52.357 71.963 52.5045C71.8173 52.652 71.6437 52.769 71.4523 52.8487C71.2609 52.9285 71.0556 52.9693 70.8483 52.9689C70.6409 52.9685 70.4358 52.9268 70.2447 52.8463C70.0536 52.7658 69.8805 52.6481 69.7354 52.5L68.8812 51.6562C68.7354 62 60.2125 70.3125 49.7562 70.3125C46.4849 70.3198 43.2662 69.4897 40.4065 67.9012C37.5467 66.3127 35.1411 64.0186 33.4187 61.2375C33.3109 61.0628 33.2386 60.8686 33.2059 60.666C33.1731 60.4633 33.1806 60.2562 33.2279 60.0565C33.2752 59.8567 33.3614 59.6683 33.4815 59.5018C33.6017 59.3354 33.7534 59.1942 33.9281 59.0865C34.1028 58.9787 34.297 58.9063 34.4996 58.8736C34.7023 58.8409 34.9094 58.8483 35.1091 58.8956C35.3089 58.9429 35.4973 59.0291 35.6638 59.1493C35.8302 59.2694 35.9714 59.4211 36.0792 59.5958C37.5215 61.9233 39.5356 63.8429 41.9296 65.1717C44.3237 66.5006 47.0181 67.1946 49.7562 67.1875C58.5187 67.1875 65.6104 60.2437 65.7562 51.6604L64.9062 52.5C64.6115 52.7915 64.213 52.9539 63.7984 52.9515C63.3839 52.9492 62.9873 52.7823 62.6958 52.4875C62.4044 52.1927 62.2419 51.7942 62.2443 51.3797C62.2466 50.9652 62.4135 50.5685 62.7083 50.2771L66.2208 46.8062Z" fill="#126EB4"/>
</svg>
