<svg width="24" height="24" viewBox="0 0 24 24" fill="none" xmlns="http://www.w3.org/2000/svg">
<g clip-path="url(#clip0_3652_14936)">
<rect width="24" height="24" rx="12" fill="#F4F4F4"/>
<path d="M12.0117 3.29199C14.4263 3.29199 16.6123 4.27073 18.1947 5.85313C19.7771 7.43551 20.7559 9.62155 20.7559 12.0362C20.7559 14.4508 19.7771 16.6368 18.1947 18.2192C16.6123 19.8016 14.4263 20.7803 12.0117 20.7803C9.5971 20.7803 7.41109 19.8016 5.82868 18.2192C4.24631 16.6367 3.26758 14.4507 3.26758 12.0361C3.26758 9.62155 4.24631 7.43551 5.82868 5.8531C7.41109 4.27069 9.5971 3.29199 12.0117 3.29199ZM17.82 6.22781C16.3336 4.74134 14.28 3.82195 12.0117 3.82195C9.74341 3.82195 7.68986 4.74134 6.20339 6.22781C4.71692 7.71427 3.79754 9.76783 3.79754 12.0361C3.79754 14.3044 4.71696 16.358 6.20339 17.8444C7.68986 19.3309 9.74341 20.2503 12.0117 20.2503C14.28 20.2503 16.3336 19.3309 17.82 17.8444C19.3065 16.358 20.2259 14.3044 20.2259 12.0361C20.2259 9.76783 19.3065 7.71424 17.82 6.22781Z" fill="black"/>
<path fill-rule="evenodd" clip-rule="evenodd" d="M16.3834 13.4874C16.5416 13.1133 16.6218 12.7162 16.6218 12.3071C16.6218 12.0703 16.4292 11.8777 16.1925 11.8777C15.9557 11.8777 15.763 12.0703 15.763 12.3071C15.763 13.5053 14.7883 14.4801 13.5901 14.4801H7.83152C7.65717 14.4801 7.50145 14.5841 7.4348 14.7452C7.36803 14.9062 7.40459 15.0899 7.52781 15.2131L9.35507 17.0404C9.43616 17.1215 9.54399 17.1661 9.65871 17.1661C9.77342 17.1661 9.88126 17.1215 9.96234 17.0404C10.1298 16.8729 10.1298 16.6005 9.96234 16.4331L9.0607 15.5313C9.02846 15.4991 9.01881 15.4506 9.03626 15.4085C9.05372 15.3663 9.09483 15.3389 9.14043 15.3389H13.59C13.9992 15.3389 14.3963 15.2587 14.7703 15.1005C15.1314 14.9478 15.4555 14.7292 15.7338 14.4509C16.0122 14.1726 16.2307 13.8484 16.3834 13.4874Z" fill="black"/>
<path fill-rule="evenodd" clip-rule="evenodd" d="M8.28985 9.621C8.01151 9.89938 7.79295 10.2236 7.6403 10.5846C7.48208 10.9587 7.40186 11.3558 7.40186 11.7649C7.40186 12.0017 7.59448 12.1943 7.83121 12.1943C8.06798 12.1943 8.26064 12.0017 8.26064 11.7649C8.26064 10.5667 9.23542 9.59189 10.4336 9.59189H16.1921C16.3664 9.59189 16.5222 9.48783 16.5888 9.32681C16.6556 9.16574 16.619 8.9821 16.4958 8.85883L14.6685 7.03157C14.5011 6.86417 14.2287 6.86413 14.0613 7.03157C13.8939 7.19901 13.8939 7.47144 14.0613 7.63891L14.9629 8.54063C14.9952 8.57287 15.0048 8.62139 14.9874 8.6635C14.9699 8.70561 14.9288 8.73307 14.8832 8.73307H10.4336C10.0245 8.73307 9.62733 8.81327 9.25334 8.97144C8.89231 9.12417 8.56816 9.34273 8.28985 9.621Z" fill="black"/>
</g>
<defs>
<clipPath id="clip0_3652_14936">
<rect width="24" height="24" rx="12" fill="white"/>
</clipPath>
</defs>
</svg>
