<svg width="60" height="60" viewBox="0 0 60 60" fill="none" xmlns="http://www.w3.org/2000/svg">
<g opacity="0.2">
<path d="M29.6888 15.9375L34.1063 27.1425L45.3113 31.5638L34.1063 35.9813L29.6888 47.1863L25.2675 35.9813L14.0625 31.5638L25.2675 27.1425L29.6888 15.9375Z" fill="white"/>
<path d="M29.6887 14.3737C30.3262 14.3737 30.9075 14.7675 31.14 15.3637L35.31 25.9387L45.885 30.1087C46.1759 30.2244 46.4255 30.4247 46.6013 30.6838C46.7771 30.9429 46.871 31.2488 46.871 31.5619C46.871 31.875 46.7771 32.1808 46.6013 32.4399C46.4255 32.699 46.1759 32.8993 45.885 33.015L35.31 37.185L31.14 47.76C31.0243 48.0509 30.824 48.3005 30.5649 48.4763C30.3058 48.6521 30 48.746 29.6869 48.746C29.3738 48.746 29.0679 48.6521 28.8088 48.4763C28.5498 48.3005 28.3494 48.0509 28.2337 47.76L24.0637 37.185L13.4887 33.015C13.1978 32.8993 12.9483 32.699 12.7725 32.4399C12.5967 32.1808 12.5027 31.875 12.5027 31.5619C12.5027 31.2488 12.5967 30.9429 12.7725 30.6838C12.9483 30.4247 13.1978 30.2244 13.4887 30.1087L24.0637 25.9387L28.2337 15.3637C28.3502 15.0727 28.5509 14.8229 28.8101 14.6466C29.0693 14.4702 29.3752 14.3752 29.6887 14.3737ZM29.6887 20.1975L26.7225 27.7125C26.6433 27.9116 26.5243 28.0925 26.3727 28.244C26.2212 28.3955 26.0404 28.5145 25.8412 28.5937L18.3225 31.5562L25.8412 34.5262C26.04 34.605 26.2206 34.7235 26.3721 34.8743C26.5237 35.0252 26.6429 35.2053 26.7225 35.4037L29.685 42.9262L32.655 35.4037C32.7342 35.2057 32.8528 35.0258 33.0037 34.8749C33.1545 34.7241 33.3344 34.6055 33.5325 34.5262L41.055 31.56L33.5325 28.5937C33.3341 28.5141 33.1539 28.3949 33.0031 28.2434C32.8522 28.0919 32.7338 27.9113 32.655 27.7125L29.6887 20.1975ZM15.6262 11.25L17.6137 15.51L21.8737 17.4975L17.6137 19.4887L15.6262 23.7487L13.6387 19.4887L9.375 17.5012L13.635 15.5137L15.6262 11.25Z" fill="white"/>
</g>
</svg>
