<svg xmlns="http://www.w3.org/2000/svg" width="1024" height="1024" viewBox="0 0 1024 1024">
<g>
<path d="M 321.42 949.56 C309.82,953.07 299.70,956.12 298.92,956.35 C298.14,956.58 296.68,956.55 295.67,956.29 C294.62,956.02 283.95,940.87 270.59,920.66 C231.08,860.94 195.28,806.91 173.24,773.75 L 152.13 742.00 L 150.04 725.25 C148.89,716.04 147.09,701.97 146.03,694.00 C143.71,676.56 140.12,648.82 136.07,617.00 C134.42,604.08 132.14,586.30 130.99,577.50 C129.84,568.70 126.93,545.97 124.52,527.00 C122.11,508.02 119.21,485.52 118.09,477.00 C116.97,468.48 114.48,449.12 112.56,434.00 C110.64,418.88 107.46,393.90 105.49,378.50 C103.52,363.10 100.21,336.70 98.12,319.82 L 94.33 289.15 L 86.80 276.65 L 79.28 264.15 L 78.60 250.32 C78.22,242.72 77.47,229.78 76.92,221.57 C75.99,207.76 76.05,206.51 77.71,204.85 C79.47,203.09 97.25,200.49 210.50,185.47 C220.40,184.16 264.05,178.32 307.50,172.49 C350.95,166.66 393.48,161.00 402.00,159.92 C410.52,158.83 419.19,157.21 421.26,156.32 C424.92,154.73 425.10,154.40 428.93,142.10 C433.46,127.53 438.11,112.01 440.45,103.71 C441.67,99.38 442.71,97.63 444.57,96.79 C444.88,96.65 445.14,96.52 445.42,96.42 C447.56,95.67 450.30,96.62 477.48,106.01 L 478.82 106.48 C487.80,109.58 495.67,111.98 496.32,111.81 C496.97,111.64 506.37,106.21 517.20,99.75 C536.49,88.25 540.59,86.59 542.90,89.38 C543.53,90.13 549.20,101.45 555.50,114.52 C561.80,127.60 567.11,138.45 567.30,138.63 C567.49,138.82 575.93,137.89 586.07,136.55 C618.99,132.23 636.17,129.95 654.50,127.45 C655.18,127.36 655.85,127.27 656.50,127.18 C671.32,125.16 677.26,124.35 682.08,126.30 C685.52,127.68 688.39,130.45 693.50,135.17 C697.35,138.72 727.28,165.44 760.00,194.54 C875.54,297.30 892.72,312.60 915.27,332.81 C927.80,344.03 938.48,354.03 939.02,355.03 C939.67,356.25 939.03,367.27 937.03,389.05 C933.78,424.36 933.81,424.25 927.20,425.49 C920.71,426.71 920.46,427.08 919.14,437.69 C917.51,450.77 912.88,485.32 907.51,524.50 C905.10,542.10 901.92,565.50 900.45,576.50 C898.98,587.50 892.86,630.70 886.86,672.50 C880.85,714.30 874.99,755.25 873.83,763.50 C872.57,772.45 871.13,779.18 870.26,780.19 C868.69,782.01 867.84,782.28 804.00,801.84 C780.62,809.00 738.78,821.83 711.00,830.36 C664.39,844.67 611.84,860.74 533.50,884.65 C516.45,889.86 493.95,896.76 483.50,900.00 C473.05,903.24 453.48,909.26 440.00,913.37 C426.52,917.48 399.08,925.87 379.00,932.01 C358.92,938.15 333.01,946.05 321.42,949.56 ZM 300.65 937.25 C301.00,941.51 301.69,945.00 302.19,945.00 C302.69,945.00 312.86,942.02 324.80,938.37 C336.73,934.72 363.83,926.44 385.00,919.97 C406.17,913.50 438.58,903.62 457.00,898.02 C475.42,892.42 495.23,886.34 501.00,884.52 C506.77,882.69 516.00,879.83 521.50,878.16 C544.53,871.14 606.64,852.17 635.00,843.49 C673.02,831.85 686.16,827.83 702.00,823.01 C725.92,815.74 787.58,796.86 800.00,793.01 C806.88,790.88 823.75,785.69 837.50,781.47 C851.25,777.26 862.66,773.65 862.86,773.46 C863.05,773.28 864.25,765.56 865.51,756.31 C868.06,737.69 878.59,664.02 882.48,637.50 C883.86,628.15 886.11,612.17 887.49,602.00 C890.81,577.48 892.36,566.23 896.46,537.00 C899.81,513.17 903.92,482.58 908.03,451.00 C909.13,442.48 910.25,434.26 910.50,432.75 C910.88,430.43 910.60,430.00 908.71,430.00 C906.65,430.00 866.44,437.79 832.00,444.86 C824.03,446.50 811.65,449.02 804.50,450.46 C797.35,451.89 763.60,458.69 729.50,465.55 C695.40,472.42 659.40,479.64 649.50,481.60 C639.60,483.56 621.83,487.13 610.00,489.53 C598.17,491.93 572.53,497.10 553.00,501.03 C505.04,510.67 457.00,520.42 412.50,529.54 C392.15,533.72 372.35,537.72 368.50,538.45 C353.76,541.24 271.69,557.98 271.41,558.26 C271.25,558.42 271.75,566.41 272.53,576.02 C273.31,585.64 274.85,605.88 275.96,621.00 C277.07,636.12 278.44,653.90 279.01,660.50 C279.59,667.10 280.93,683.97 281.99,698.00 C283.06,712.03 284.64,732.28 285.50,743.00 C286.36,753.72 287.71,771.05 288.49,781.50 C292.39,833.49 296.05,880.68 296.98,891.00 C297.55,897.33 298.47,908.58 299.01,916.00 C299.56,923.42 300.30,932.99 300.65,937.25 ZM 245.15 478.25 C248.96,484.71 252.30,490.00 252.58,490.00 C252.86,490.00 272.31,486.15 295.80,481.45 C319.28,476.75 344.12,471.82 351.00,470.50 C357.88,469.17 372.50,466.24 383.50,463.98 C394.50,461.72 405.75,459.47 408.50,458.98 C411.25,458.50 462.77,448.17 523.00,436.04 C583.22,423.91 697.97,400.89 778.00,384.88 C858.03,368.87 923.87,355.44 924.31,355.03 C925.10,354.30 891.46,324.07 759.50,206.94 C716.63,168.89 687.75,143.04 683.39,138.80 L 678.28 133.84 L 667.39 135.37 C649.48,137.89 627.71,140.80 606.50,143.52 C595.50,144.92 586.09,146.20 585.58,146.34 C585.08,146.49 591.38,149.24 599.58,152.44 C607.79,155.65 621.77,161.16 630.66,164.68 L 646.82 171.08 L 654.54 170.12 C658.78,169.59 662.88,169.40 663.64,169.69 C666.59,170.82 666.09,175.37 660.60,197.23 C654.54,221.36 654.15,224.00 656.58,224.00 C658.79,224.00 700.94,264.98 701.67,267.83 C702.02,269.22 701.69,270.74 700.86,271.57 C699.98,272.45 686.01,275.24 663.98,278.94 C644.46,282.23 602.85,289.22 571.50,294.49 C540.15,299.76 501.23,306.34 485.00,309.11 C468.77,311.88 452.80,314.56 449.50,315.06 C446.20,315.57 430.23,318.23 414.00,320.99 C397.77,323.74 371.90,328.04 356.50,330.54 C341.10,333.03 323.47,335.96 317.33,337.04 C311.19,338.12 305.46,338.73 304.61,338.41 C303.76,338.08 299.82,333.02 295.85,327.16 C291.88,321.29 284.85,310.95 280.22,304.18 C273.66,294.56 271.95,291.34 272.41,289.49 C273.12,286.68 273.45,286.57 287.50,284.49 C300.84,282.51 302.00,282.20 302.00,280.63 C302.00,279.95 299.26,272.44 295.92,263.95 C285.94,238.60 285.76,238.01 287.42,235.48 C288.21,234.28 312.73,219.39 341.91,202.40 C371.09,185.40 394.97,171.17 394.98,170.77 C394.99,170.38 393.54,170.28 391.75,170.57 C389.96,170.86 386.02,171.50 383.00,172.01 C379.98,172.51 373.90,173.39 369.50,173.97 C361.54,175.01 347.75,176.87 332.50,178.96 C328.10,179.56 302.45,182.98 275.50,186.55 C223.14,193.50 174.42,200.03 156.50,202.51 C150.45,203.35 141.90,204.50 137.50,205.07 C133.10,205.64 126.57,206.52 123.00,207.02 C119.43,207.52 110.43,208.70 103.00,209.65 C95.57,210.59 89.37,211.45 89.20,211.56 C89.04,211.67 90.21,213.73 91.81,216.13 C106.29,237.93 132.00,279.20 132.00,280.65 C132.00,280.87 133.15,282.87 134.57,285.10 C137.06,289.05 160.04,328.92 168.52,344.00 C170.83,348.12 182.39,368.38 194.20,389.00 C206.01,409.62 220.75,435.50 226.95,446.50 C233.15,457.50 241.34,471.79 245.15,478.25 ZM 282.89 922.37 C287.52,929.27 289.59,931.66 289.79,930.31 C289.96,929.25 287.60,896.24 284.55,856.94 C281.50,817.65 277.66,767.95 276.02,746.50 C274.38,725.05 272.36,698.95 271.52,688.50 C270.69,678.05 268.43,648.80 266.49,623.50 C264.56,598.20 262.64,573.67 262.24,569.00 L 261.50 560.50 L 256.32 560.82 C252.31,561.06 250.75,560.72 249.46,559.32 C248.54,558.32 239.47,542.65 229.31,524.50 C161.75,403.86 107.45,309.22 106.39,310.28 C105.99,310.67 110.88,350.93 116.00,389.50 C117.10,397.75 119.12,413.50 120.50,424.50 C121.88,435.50 123.69,449.63 124.52,455.90 C125.35,462.16 127.58,479.49 129.48,494.40 C131.38,509.30 134.31,532.08 135.99,545.00 C137.67,557.92 141.28,586.05 144.00,607.50 C148.58,643.43 152.23,671.84 158.47,720.02 L 160.87 738.54 L 184.79 774.52 C197.95,794.31 223.92,833.45 242.50,861.50 C261.08,889.55 279.25,916.94 282.89,922.37 ZM 256.72 550.33 C256.99,550.79 258.18,550.92 259.36,550.63 C261.22,550.16 289.47,544.41 353.50,531.48 C362.85,529.59 388.27,524.42 410.00,520.00 C431.73,515.57 519.03,497.99 604.00,480.93 C688.97,463.86 768.40,447.91 780.50,445.48 C792.60,443.04 827.25,436.03 857.50,429.90 C887.75,423.76 915.41,418.22 918.97,417.60 L 925.45 416.46 L 927.79 390.63 C929.07,376.42 929.87,364.53 929.55,364.22 C928.84,363.50 912.87,365.98 911.50,367.02 C910.95,367.43 908.47,368.09 906.00,368.48 C903.53,368.87 882.38,373.03 859.00,377.72 C835.62,382.41 814.03,386.67 811.00,387.17 C807.97,387.68 799.42,389.40 792.00,391.00 C784.58,392.60 764.78,396.61 748.00,399.93 C731.22,403.24 701.97,409.12 683.00,413.00 C664.03,416.88 646.03,420.48 643.00,421.01 C639.97,421.54 619.72,425.60 598.00,430.03 C576.28,434.46 554.90,438.74 550.50,439.53 C546.10,440.33 536.42,442.29 529.00,443.90 C521.58,445.50 506.95,448.46 496.50,450.47 C486.05,452.48 472.33,455.21 466.00,456.54 C447.18,460.51 431.90,463.59 416.50,466.52 C410.32,467.70 398.97,469.99 385.00,472.88 C375.95,474.75 369.08,476.12 349.00,480.07 C337.73,482.28 325.58,484.74 322.00,485.52 C318.42,486.30 305.83,488.77 294.00,491.00 C282.17,493.23 268.51,496.01 263.63,497.17 L 254.75 499.28 L 255.48 524.39 C255.88,538.20 256.44,549.87 256.72,550.33 ZM 375.50 312.89 L 374.95 318.29 L 380.22 317.67 C383.13,317.34 417.45,311.65 456.50,305.04 C495.55,298.42 550.90,289.12 579.50,284.35 C608.10,279.59 631.85,275.39 632.28,275.02 C632.71,274.65 638.24,253.45 644.57,227.92 C650.91,202.39 656.34,180.67 656.64,179.65 C657.08,178.21 656.79,177.93 655.35,178.36 C654.33,178.67 641.58,180.53 627.00,182.49 C612.42,184.45 573.05,189.89 539.50,194.57 C505.95,199.26 460.95,205.54 439.50,208.52 C418.05,211.51 396.79,214.48 392.27,215.13 C389.05,215.60 387.04,215.47 385.68,216.36 C382.89,218.18 382.89,224.27 380.98,248.50 C378.94,274.36 376.54,302.60 375.50,312.89 ZM 325.77 316.75 C327.78,321.84 329.89,325.99 330.46,325.99 C333.99,325.94 365.25,320.13 365.92,319.40 C366.37,318.90 367.71,307.02 368.88,293.00 C374.69,223.74 376.00,210.57 377.23,209.46 C377.93,208.83 390.42,206.66 405.00,204.63 C419.58,202.61 452.42,198.03 478.00,194.44 C503.58,190.86 532.60,186.83 542.50,185.49 C605.13,177.03 626.45,173.95 627.14,173.26 C627.57,172.83 613.42,166.92 595.71,160.12 C577.99,153.31 562.74,147.02 561.80,146.12 C560.87,145.23 555.30,134.38 549.44,122.00 C543.57,109.62 538.42,99.13 538.01,98.68 C537.59,98.22 520.43,107.93 499.88,120.24 C479.32,132.56 454.62,147.28 445.00,152.95 C435.38,158.62 423.90,165.39 419.50,167.99 C415.10,170.60 393.27,183.30 371.00,196.23 C306.66,233.56 297.00,239.37 297.00,240.71 C297.00,241.41 298.10,244.80 299.44,248.24 C300.79,251.68 306.44,266.42 312.00,281.00 C317.57,295.58 323.76,311.66 325.77,316.75 ZM 245.68 536.25 C247.03,538.58 247.18,535.07 246.52,516.84 L 245.78 496.68 L 237.50 482.09 C210.31,434.15 156.37,339.57 140.52,312.00 C115.46,268.44 87.46,223.21 86.27,224.39 C85.41,225.25 88.14,261.40 89.23,263.45 C89.82,264.58 94.76,272.86 100.20,281.85 C105.64,290.84 114.33,305.53 119.51,314.50 C155.04,375.97 169.02,400.35 179.47,419.00 C184.86,428.62 197.47,450.90 207.49,468.50 C217.51,486.10 230.10,508.38 235.48,518.00 C240.85,527.62 245.44,535.84 245.68,536.25 ZM 642.00 272.29 C642.00,272.68 643.01,272.99 644.25,272.98 C647.43,272.94 687.03,266.31 687.63,265.71 C688.12,265.21 663.44,240.69 657.24,235.52 C655.44,234.02 653.41,233.01 652.72,233.28 C651.76,233.65 642.00,269.15 642.00,272.29 ZM 437.00 147.60 C437.00,147.96 448.07,141.55 468.25,129.50 C477.46,124.00 485.00,119.20 485.00,118.83 C485.00,117.72 451.04,106.77 449.47,107.37 C448.66,107.68 448.00,108.55 448.00,109.30 C448.00,110.05 445.52,118.92 442.50,129.00 C439.48,139.08 437.00,147.46 437.00,147.60 ZM 303.15 322.77 L 307.25 329.04 L 312.37 328.39 C315.19,328.04 317.90,327.38 318.40,326.93 C318.92,326.45 318.43,324.08 317.24,321.30 C316.12,318.66 314.53,314.25 313.72,311.50 C311.11,302.69 305.89,290.00 304.86,290.00 C301.87,290.00 283.00,293.35 283.02,293.88 C283.04,294.22 286.65,299.45 291.05,305.50 C295.46,311.55 300.90,319.32 303.15,322.77 Z" fill="rgb(9,2,2)"/>
<path d="M 282.89 922.37 C279.25,916.94 261.08,889.55 242.50,861.50 C223.92,833.45 197.95,794.31 184.79,774.52 L 160.87 738.54 L 158.47 720.02 C152.23,671.84 148.58,643.43 144.00,607.50 C141.28,586.05 137.67,557.92 135.99,545.00 C134.31,532.08 131.38,509.30 129.48,494.40 C127.58,479.49 125.35,462.16 124.52,455.90 C123.69,449.63 121.88,435.50 120.50,424.50 C119.12,413.50 117.10,397.75 116.00,389.50 C110.88,350.93 105.99,310.67 106.39,310.28 C107.45,309.22 161.75,403.86 229.31,524.50 C239.47,542.65 248.54,558.32 249.46,559.32 C250.75,560.72 252.31,561.06 256.32,560.82 L 261.50 560.50 L 262.24 569.00 C262.64,573.67 264.56,598.20 266.49,623.50 C268.43,648.80 270.69,678.05 271.52,688.50 C272.36,698.95 274.38,725.05 276.02,746.50 C277.66,767.95 281.50,817.65 284.55,856.94 C287.60,896.24 289.96,929.25 289.79,930.31 C289.59,931.66 287.52,929.27 282.89,922.37 ZM 245.68 536.25 C245.44,535.84 240.85,527.62 235.48,518.00 C230.10,508.38 217.51,486.10 207.49,468.50 C197.47,450.90 184.86,428.62 179.47,419.00 C169.02,400.35 155.04,375.97 119.51,314.50 C114.33,305.53 105.64,290.84 100.20,281.85 C94.76,272.86 89.82,264.58 89.23,263.45 C88.14,261.40 85.41,225.25 86.27,224.39 C87.46,223.21 115.46,268.44 140.52,312.00 C156.37,339.57 210.31,434.15 237.50,482.09 L 245.78 496.68 L 246.52 516.84 C247.18,535.07 247.03,538.58 245.68,536.25 ZM 642.00 272.29 C642.00,269.15 651.76,233.65 652.72,233.28 C653.41,233.01 655.44,234.02 657.24,235.52 C663.44,240.69 688.12,265.21 687.63,265.71 C687.03,266.31 647.43,272.94 644.25,272.98 C643.01,272.99 642.00,272.68 642.00,272.29 ZM 303.15 322.77 C300.90,319.32 295.46,311.55 291.05,305.50 C286.65,299.45 283.04,294.22 283.02,293.88 C283.00,293.35 301.87,290.00 304.86,290.00 C305.89,290.00 311.11,302.69 313.72,311.50 C314.53,314.25 316.12,318.66 317.24,321.30 C318.43,324.08 318.92,326.45 318.40,326.93 C317.90,327.38 315.19,328.04 312.37,328.39 L 307.25 329.04 ZM 341.91 202.40 C313.99,218.66 290.35,232.98 287.66,235.25 C290.27,233.03 312.26,219.66 338.17,204.57 C365.30,188.76 388.40,174.91 389.50,173.80 L 391.50 171.76 L 383.00 172.41 C380.91,172.57 378.44,172.81 376.06,173.06 C378.77,172.67 381.34,172.28 383.00,172.01 C386.02,171.50 389.96,170.86 391.75,170.57 C393.54,170.28 394.99,170.38 394.98,170.77 C394.97,171.17 371.09,185.40 341.91,202.40 ZM 906.88 368.33 C909.03,367.94 911.02,367.38 911.50,367.02 C912.51,366.26 921.40,364.72 926.33,364.24 C925.21,364.49 923.93,364.97 923.00,365.50 C921.62,366.29 918.92,366.95 917.00,366.97 C915.40,366.99 912.35,367.39 906.88,368.33 ZM 149.00 336.00 C149.00,336.55 149.45,337.00 150.00,337.00 C150.55,337.00 151.00,336.55 151.00,336.00 C151.00,335.45 150.55,335.00 150.00,335.00 C149.45,335.00 149.00,335.45 149.00,336.00 ZM 362.34 174.92 C358.72,175.43 354.35,176.02 350.50,176.53 C348.51,176.79 346.37,177.07 344.25,177.35 C351.04,176.43 357.23,175.60 362.34,174.92 ZM 330.47 179.23 C326.79,179.74 319.44,180.72 311.32,181.79 C320.05,180.63 326.91,179.71 330.47,179.23 ZM 929.20 364.11 C929.38,364.14 929.50,364.17 929.55,364.22 C929.59,364.25 929.61,364.43 929.62,364.75 C929.52,364.41 929.38,364.22 929.20,364.11 ZM 811.00 387.17 C808.73,387.55 803.35,388.62 797.68,389.80 C803.35,388.61 808.73,387.55 811.00,387.17 C812.08,386.99 815.50,386.34 820.52,385.36 C815.61,386.32 812.16,386.98 811.00,387.17 ZM 904.06 368.83 C905.01,368.65 905.67,368.53 906.00,368.48 C906.09,368.47 906.18,368.45 906.26,368.44 C905.57,368.56 904.83,368.69 904.06,368.83 ZM 183.59 198.83 C188.35,198.19 193.50,197.49 198.99,196.76 C193.54,197.49 188.36,198.18 183.59,198.83 Z" fill="rgb(141,22,29)"/>
<path d="M 300.65 937.25 C300.30,932.99 299.56,923.42 299.01,916.00 C298.47,908.58 297.55,897.33 296.98,891.00 C296.05,880.68 292.39,833.49 288.49,781.50 C287.71,771.05 286.36,753.72 285.50,743.00 C284.64,732.28 283.06,712.03 281.99,698.00 C280.93,683.97 279.59,667.10 279.01,660.50 C278.44,653.90 277.07,636.12 275.96,621.00 C274.85,605.88 273.31,585.64 272.53,576.02 C271.75,566.41 271.25,558.42 271.41,558.26 C271.69,557.98 353.76,541.24 368.50,538.45 C372.35,537.72 392.15,533.72 412.50,529.54 C457.00,520.42 505.04,510.67 553.00,501.03 C572.53,497.10 598.17,491.93 610.00,489.53 C621.83,487.13 639.60,483.56 649.50,481.60 C659.40,479.64 695.40,472.42 729.50,465.55 C763.60,458.69 797.35,451.89 804.50,450.46 C811.65,449.02 824.03,446.50 832.00,444.86 C866.44,437.79 906.65,430.00 908.71,430.00 C910.60,430.00 910.88,430.43 910.50,432.75 C910.25,434.26 909.13,442.48 908.03,451.00 C903.92,482.58 899.81,513.17 896.46,537.00 C892.36,566.23 890.81,577.48 887.49,602.00 C886.11,612.17 883.86,628.15 882.48,637.50 C878.59,664.02 868.06,737.69 865.51,756.31 C864.25,765.56 863.05,773.28 862.86,773.46 C862.66,773.65 851.25,777.26 837.50,781.47 C823.75,785.69 806.88,790.88 800.00,793.01 C787.58,796.86 725.92,815.74 702.00,823.01 C686.16,827.83 673.02,831.85 635.00,843.49 C606.64,852.17 544.53,871.14 521.50,878.16 C516.00,879.83 506.77,882.69 501.00,884.52 C495.23,886.34 475.42,892.42 457.00,898.02 C438.58,903.62 406.17,913.50 385.00,919.97 C363.83,926.44 336.73,934.72 324.80,938.37 C312.86,942.02 302.69,945.00 302.19,945.00 C301.69,945.00 301.00,941.51 300.65,937.25 ZM 245.15 478.25 C241.34,471.79 233.15,457.50 226.95,446.50 C220.75,435.50 206.01,409.62 194.20,389.00 C182.39,368.38 170.83,348.12 168.52,344.00 C160.04,328.92 137.06,289.05 134.57,285.10 C133.15,282.87 132.00,280.87 132.00,280.65 C132.00,279.20 106.29,237.93 91.81,216.13 C90.21,213.73 89.04,211.67 89.20,211.56 C89.37,211.45 95.57,210.59 103.00,209.65 C110.43,208.70 119.43,207.52 123.00,207.02 C126.57,206.52 133.10,205.64 137.50,205.07 C141.90,204.50 150.45,203.35 156.50,202.51 C162.46,201.69 171.82,200.41 183.59,198.83 C188.36,198.18 193.54,197.49 198.99,196.76 C220.72,193.84 247.59,190.25 275.50,186.55 C288.49,184.83 301.17,183.14 311.32,181.79 L 311.32 181.79 C319.44,180.72 326.80,179.74 330.47,179.23 C331.36,179.11 332.04,179.02 332.50,178.96 C336.55,178.40 340.49,177.86 344.25,177.35 C346.37,177.07 348.51,176.79 350.50,176.53 C354.35,176.02 358.72,175.43 362.34,174.92 C365.06,174.55 367.47,174.23 369.50,173.97 C371.49,173.71 373.82,173.38 376.06,173.06 C378.44,172.81 380.91,172.57 383.00,172.41 L 391.50 171.76 L 389.50 173.80 C388.40,174.91 365.30,188.76 338.17,204.57 C312.27,219.66 290.28,233.03 287.66,235.25 L 287.66 235.25 C287.53,235.35 287.45,235.43 287.42,235.48 C285.76,238.01 285.94,238.60 295.92,263.95 C299.26,272.44 302.00,279.95 302.00,280.63 C302.00,282.20 300.84,282.51 287.50,284.49 C273.45,286.57 273.12,286.68 272.41,289.49 C271.95,291.34 273.66,294.56 280.22,304.18 C284.85,310.95 291.88,321.29 295.85,327.16 C299.82,333.02 303.76,338.08 304.61,338.41 C305.46,338.73 311.19,338.12 317.33,337.04 C323.47,335.96 341.10,333.03 356.50,330.54 C371.90,328.04 397.77,323.74 414.00,320.99 C430.23,318.23 446.20,315.57 449.50,315.06 C452.80,314.56 468.77,311.88 485.00,309.11 C501.23,306.34 540.15,299.76 571.50,294.49 C602.85,289.22 644.46,282.23 663.98,278.94 C686.01,275.24 699.98,272.45 700.86,271.57 C701.69,270.74 702.02,269.22 701.67,267.83 C700.94,264.98 658.79,224.00 656.58,224.00 C654.15,224.00 654.54,221.36 660.60,197.23 C666.09,175.37 666.59,170.82 663.64,169.69 C662.88,169.40 658.78,169.59 654.54,170.12 L 646.82 171.08 L 630.66 164.68 C621.77,161.16 607.79,155.65 599.58,152.44 C591.38,149.24 585.08,146.49 585.58,146.34 C586.09,146.20 595.50,144.92 606.50,143.52 C627.71,140.80 649.48,137.89 667.39,135.37 L 678.28 133.84 L 683.39 138.80 C687.75,143.04 716.63,168.89 759.50,206.94 C891.46,324.07 925.10,354.30 924.31,355.03 C923.87,355.44 858.03,368.87 778.00,384.88 C697.97,400.89 583.22,423.91 523.00,436.04 C462.77,448.17 411.25,458.50 408.50,458.98 C405.75,459.47 394.50,461.72 383.50,463.98 C372.50,466.24 357.88,469.17 351.00,470.50 C344.12,471.82 319.28,476.75 295.80,481.45 C272.31,486.15 252.86,490.00 252.58,490.00 C252.30,490.00 248.96,484.71 245.15,478.25 ZM 256.72 550.33 C256.44,549.87 255.88,538.20 255.48,524.39 L 254.75 499.28 L 263.63 497.17 C268.51,496.01 282.17,493.23 294.00,491.00 C305.83,488.77 318.42,486.30 322.00,485.52 C325.58,484.74 337.73,482.28 349.00,480.07 C369.08,476.12 375.95,474.75 385.00,472.88 C398.97,469.99 410.32,467.70 416.50,466.52 C431.90,463.59 447.18,460.51 466.00,456.54 C472.33,455.21 486.05,452.48 496.50,450.47 C506.95,448.46 521.58,445.50 529.00,443.90 C536.42,442.29 546.10,440.33 550.50,439.53 C554.90,438.74 576.28,434.46 598.00,430.03 C619.72,425.60 639.97,421.54 643.00,421.01 C646.03,420.48 664.03,416.88 683.00,413.00 C701.97,409.12 731.22,403.24 748.00,399.93 C764.78,396.61 784.58,392.60 792.00,391.00 C793.86,390.60 795.78,390.19 797.68,389.80 C803.35,388.62 808.73,387.55 811.00,387.17 C812.16,386.98 815.61,386.32 820.52,385.36 C829.61,383.58 843.94,380.74 859.00,377.72 C879.27,373.65 897.86,369.99 904.06,368.83 C904.83,368.69 905.57,368.56 906.26,368.44 L 906.26 368.44 C906.47,368.40 906.67,368.37 906.88,368.33 C912.35,367.39 915.40,366.99 917.00,366.97 C918.92,366.95 921.62,366.29 923.00,365.50 C923.93,364.97 925.21,364.49 926.33,364.24 C927.65,364.11 928.68,364.06 929.20,364.11 C929.38,364.22 929.52,364.41 929.62,364.75 C929.68,367.23 928.93,378.02 927.79,390.63 L 925.45 416.46 L 918.97 417.60 C915.41,418.22 887.75,423.76 857.50,429.90 C827.25,436.03 792.60,443.04 780.50,445.48 C768.40,447.91 688.97,463.86 604.00,480.93 C519.03,497.99 431.73,515.57 410.00,520.00 C388.27,524.42 362.85,529.59 353.50,531.48 C289.47,544.41 261.22,550.16 259.36,550.63 C258.18,550.92 256.99,550.79 256.72,550.33 ZM 149.00 336.00 C149.00,335.45 149.45,335.00 150.00,335.00 C150.55,335.00 151.00,335.45 151.00,336.00 C151.00,336.55 150.55,337.00 150.00,337.00 C149.45,337.00 149.00,336.55 149.00,336.00 Z" fill="rgb(206,22,34)"/>
<path d="M 0.00 512.00 L 0.00 0.00 L 512.00 0.00 L 1024.00 0.00 L 1024.00 512.00 L 1024.00 1024.00 L 512.00 1024.00 L 0.00 1024.00 L 0.00 512.00 ZM 321.42 949.56 C333.01,946.05 358.92,938.15 379.00,932.01 C399.08,925.87 426.52,917.48 440.00,913.37 C453.48,909.26 473.05,903.24 483.50,900.00 C493.95,896.76 516.45,889.86 533.50,884.65 C611.84,860.74 664.39,844.67 711.00,830.36 C738.78,821.83 780.62,809.00 804.00,801.84 C867.84,782.28 868.69,782.01 870.26,780.19 C871.13,779.18 872.57,772.45 873.83,763.50 C874.99,755.25 880.85,714.30 886.86,672.50 C892.86,630.70 898.98,587.50 900.45,576.50 C901.92,565.50 905.10,542.10 907.51,524.50 C912.88,485.32 917.51,450.77 919.14,437.69 C920.46,427.08 920.71,426.71 927.20,425.49 C933.81,424.25 933.78,424.36 937.03,389.05 C939.03,367.27 939.67,356.25 939.02,355.03 C938.48,354.03 927.80,344.03 915.27,332.81 C892.72,312.60 875.54,297.30 760.00,194.54 C727.28,165.44 697.35,138.72 693.50,135.17 C680.89,123.53 681.91,123.73 654.50,127.45 C636.17,129.95 618.99,132.23 586.07,136.55 C575.93,137.89 567.49,138.82 567.30,138.63 C567.11,138.45 561.80,127.60 555.50,114.52 C549.20,101.45 543.53,90.13 542.90,89.38 C540.59,86.59 536.49,88.25 517.20,99.75 C506.37,106.21 496.97,111.64 496.32,111.81 C495.67,111.98 487.80,109.58 478.82,106.48 C446.80,95.40 447.30,95.54 444.57,96.79 C442.71,97.63 441.67,99.38 440.45,103.71 C438.11,112.01 433.46,127.53 428.93,142.10 C425.10,154.40 424.92,154.73 421.26,156.32 C419.19,157.21 410.52,158.83 402.00,159.92 C393.48,161.00 350.95,166.66 307.50,172.49 C264.05,178.32 220.40,184.16 210.50,185.47 C97.25,200.49 79.47,203.09 77.71,204.85 C76.05,206.51 75.99,207.76 76.92,221.57 C77.47,229.78 78.22,242.72 78.60,250.32 L 79.28 264.15 L 86.80 276.65 L 94.33 289.15 L 98.12 319.82 C100.21,336.70 103.52,363.10 105.49,378.50 C107.46,393.90 110.64,418.88 112.56,434.00 C114.48,449.12 116.97,468.48 118.09,477.00 C119.21,485.52 122.11,508.02 124.52,527.00 C126.93,545.97 129.84,568.70 130.99,577.50 C132.14,586.30 134.42,604.08 136.07,617.00 C140.12,648.82 143.71,676.56 146.03,694.00 C147.09,701.97 148.89,716.04 150.04,725.25 L 152.13 742.00 L 173.24 773.75 C195.28,806.91 231.08,860.94 270.59,920.66 C283.95,940.87 294.62,956.02 295.67,956.29 C296.68,956.55 298.14,956.58 298.92,956.35 C299.70,956.12 309.82,953.07 321.42,949.56 ZM 325.77 316.75 C323.76,311.66 317.57,295.58 312.00,281.00 C306.44,266.42 300.79,251.68 299.44,248.24 C298.10,244.80 297.00,241.41 297.00,240.71 C297.00,239.37 306.66,233.56 371.00,196.23 C393.27,183.30 415.10,170.60 419.50,167.99 C423.90,165.39 435.38,158.62 445.00,152.95 C454.62,147.28 479.32,132.56 499.88,120.24 C520.43,107.93 537.59,98.22 538.01,98.68 C538.42,99.13 543.57,109.62 549.44,122.00 C555.30,134.38 560.87,145.23 561.80,146.12 C562.74,147.02 577.99,153.31 595.71,160.12 C613.42,166.92 627.57,172.83 627.14,173.26 C626.45,173.95 605.13,177.03 542.50,185.49 C532.60,186.83 503.58,190.86 478.00,194.44 C452.42,198.03 419.58,202.61 405.00,204.63 C390.42,206.66 377.93,208.83 377.23,209.46 C376.00,210.57 374.69,223.74 368.88,293.00 C367.71,307.02 366.37,318.90 365.92,319.40 C365.25,320.13 333.99,325.94 330.46,325.99 C329.89,325.99 327.78,321.84 325.77,316.75 ZM 375.50 312.89 C376.54,302.60 378.94,274.36 380.98,248.50 C383.81,212.50 382.44,216.55 392.27,215.13 C396.79,214.48 418.05,211.51 439.50,208.52 C460.95,205.54 505.95,199.26 539.50,194.57 C573.05,189.89 612.42,184.45 627.00,182.49 C641.58,180.53 654.33,178.67 655.35,178.36 C656.79,177.93 657.08,178.21 656.64,179.65 C656.34,180.67 650.91,202.39 644.57,227.92 C638.24,253.45 632.71,274.65 632.28,275.02 C631.85,275.39 608.10,279.59 579.50,284.35 C550.90,289.12 495.55,298.42 456.50,305.04 C417.45,311.65 383.13,317.34 380.22,317.67 L 374.95 318.29 L 375.50 312.89 ZM 437.00 147.60 C437.00,147.46 439.48,139.08 442.50,129.00 C445.52,118.92 448.00,110.05 448.00,109.30 C448.00,108.55 448.66,107.68 449.47,107.37 C451.04,106.77 485.00,117.72 485.00,118.83 C485.00,119.20 477.46,124.00 468.25,129.50 C448.07,141.55 437.00,147.96 437.00,147.60 Z" fill="rgb(247,247,247)"/>
</g>
</svg>