<svg width="24" height="24" viewBox="0 0 24 24" fill="none" xmlns="http://www.w3.org/2000/svg">
<path d="M15 10.2012C16.305 10.2084 17.0118 10.2666 17.4726 10.7274C18 11.2548 18 12.1032 18 13.8V14.4C18 16.0974 18 16.9458 17.4726 17.4732C16.9458 18 16.0968 18 14.4 18H9.6C7.9032 18 7.0542 18 6.5274 17.4732C6 16.9452 6 16.0974 6 14.4V13.8C6 12.1032 6 11.2548 6.5274 10.7274C6.9882 10.2666 7.695 10.2084 9 10.2012" stroke="white" stroke-linecap="round"/>
<path d="M12 6V13.8M12 13.8L10.2 11.7M12 13.8L13.8 11.7" stroke="white" stroke-linecap="round" stroke-linejoin="round"/>
</svg>
