<svg width="24" height="24" viewBox="0 0 24 24" fill="none" xmlns="http://www.w3.org/2000/svg">
<path fill-rule="evenodd" clip-rule="evenodd" d="M6.09366 10.9667C6.14053 7.66 8.79226 5.00001 12.0487 5.00001C13.0682 4.99839 14.0711 5.26456 14.9615 5.77309C15.8519 6.28162 16.6002 7.01552 17.1348 7.90467C17.1987 8.01743 17.2171 8.1513 17.186 8.27775C17.155 8.4042 17.0769 8.51322 16.9685 8.58157C16.8601 8.64992 16.7299 8.67218 16.6057 8.64362C16.4815 8.61506 16.373 8.53792 16.3036 8.42867C15.8563 7.68493 15.2303 7.07113 14.4854 6.64592C13.7405 6.22071 12.9015 5.99832 12.0487 6.00001C9.32469 6.00001 7.11817 8.21867 7.07065 10.9653L7.33101 10.7007C7.42293 10.6072 7.54733 10.555 7.67685 10.5555C7.80636 10.556 7.93037 10.6092 8.02161 10.7033C8.11284 10.7975 8.16382 10.9249 8.16333 11.0575C8.16284 11.1902 8.11093 11.3172 8.019 11.4107L6.9255 12.5213C6.83408 12.6141 6.71056 12.6662 6.58183 12.6662C6.4531 12.6662 6.32958 12.6141 6.23816 12.5213L5.14466 11.4107C5.0991 11.3644 5.06288 11.3095 5.03806 11.2489C5.01324 11.1883 5.00031 11.1234 5.00001 11.0577C4.9997 10.992 5.01203 10.9269 5.0363 10.8661C5.06056 10.8053 5.09627 10.75 5.14141 10.7033C5.18654 10.6567 5.2402 10.6196 5.29933 10.5941C5.35846 10.5687 5.4219 10.5555 5.48603 10.5552C5.55016 10.5549 5.61372 10.5675 5.67308 10.5923C5.73244 10.6172 5.78644 10.6538 5.832 10.7L6.09366 10.9667ZM17.0651 10.478C17.1565 10.3854 17.2799 10.3334 17.4085 10.3334C17.537 10.3334 17.6604 10.3854 17.7518 10.478L18.8492 11.5887C18.896 11.6345 18.9335 11.6894 18.9593 11.7503C18.9852 11.8111 18.999 11.8766 19 11.9429C19.0009 12.0093 18.9889 12.0751 18.9647 12.1367C18.9405 12.1982 18.9046 12.2542 18.8591 12.3014C18.8136 12.3486 18.7594 12.3861 18.6996 12.4116C18.6398 12.4371 18.5756 12.4502 18.5109 12.45C18.4461 12.4499 18.382 12.4366 18.3223 12.4108C18.2626 12.3851 18.2085 12.3474 18.1632 12.3L17.8963 12.03C17.8507 15.34 15.1879 18 11.9211 18C10.8991 18.0023 9.89343 17.7367 8.99997 17.2284C8.1065 16.72 7.35493 15.986 6.8168 15.096C6.78313 15.0401 6.76053 14.9779 6.7503 14.9131C6.74007 14.8483 6.74241 14.782 6.75719 14.7181C6.77197 14.6541 6.79889 14.5938 6.83643 14.5406C6.87396 14.4873 6.92137 14.4422 6.97595 14.4077C7.03052 14.3732 7.0912 14.35 7.15451 14.3395C7.21782 14.3291 7.28252 14.3315 7.34493 14.3466C7.40733 14.3617 7.46622 14.3893 7.51822 14.4278C7.57022 14.4662 7.61432 14.5148 7.64799 14.5707C8.09862 15.3155 8.72787 15.9297 9.47585 16.3549C10.2238 16.7802 11.0656 17.0022 11.9211 17C14.6588 17 16.8744 14.778 16.92 12.0313L16.6544 12.3C16.5623 12.3933 16.4378 12.4452 16.3083 12.4445C16.1788 12.4437 16.0549 12.3903 15.9638 12.296C15.8727 12.2017 15.822 12.0742 15.8227 11.9415C15.8235 11.8088 15.8756 11.6819 15.9677 11.5887L17.0651 10.478Z" fill="white"/>
</svg>
